<svg width="393" height="697" viewBox="0 0 393 697" fill="none" xmlns="http://www.w3.org/2000/svg">
<g clip-path="url(#clip0_221_16019)">
<rect width="393" height="697" fill="#FFF9F2"/>
<g clip-path="url(#clip1_221_16019)">
<path d="M3.43576 459.812C3.50104 460.842 -0.620447 462.549 -2.41227 462.814C-6.78694 463.46 -38.2706 463.352 -39.1935 463.345C-40.1161 463.338 -54.8463 458.277 -54.8463 458.277L-54.8361 456.86C-54.8361 456.86 -54.5527 455.189 -41.841 454.826C-29.1295 454.464 -8.57114 454.365 -5.57803 454.653C-3.54893 454.849 -1.34685 455.556 -0.264535 456.511C0.922501 457.559 1.30824 457.958 1.77649 458.172C2.40348 458.46 3.3602 458.621 3.43576 459.812Z" fill="#E3D7C7"/>
<path d="M0.753906 457.418C0.114988 457.685 -0.551104 457.861 -1.22316 457.976C-1.64568 458.049 -2.07085 458.098 -2.49735 458.131C-3.08689 458.178 -3.68704 458.194 -4.26333 458.025C-4.32695 458.006 -4.3919 457.984 -4.44426 457.937C-4.56555 457.827 -4.58113 457.622 -4.58444 457.443C-4.59008 457.11 -4.58776 456.776 -4.57781 456.444C-4.57516 456.357 -4.57086 456.265 -4.53043 456.193C-4.45619 456.061 -4.29878 456.051 -4.16391 456.051C-3.33312 456.048 -2.50498 455.905 -1.71064 455.632C-1.13302 455.889 -0.633952 456.186 -0.265115 456.511C0.166685 456.892 0.491446 457.187 0.753575 457.418L0.753906 457.418Z" fill="#5A3A40"/>
<path d="M-33.6002 460.248C-29.0068 460.775 -24.3664 460.642 -19.7448 460.509C-17.3151 460.439 -14.8853 460.369 -12.4556 460.299C-8.16012 460.175 -3.86466 460.051 0.43081 459.927C1.38157 459.899 2.33332 459.884 3.28308 459.834C3.33345 459.831 3.38448 459.828 3.43585 459.824C3.46799 460.855 -0.627316 462.549 -2.41218 462.813C-6.78685 463.46 -38.2705 463.351 -39.1934 463.345C-40.116 463.338 -54.8462 458.277 -54.8462 458.277L-54.836 456.86C-54.836 456.86 -54.7448 456.324 -52.3582 455.793C-50.2538 456.424 -48.1426 457.031 -46.024 457.612C-41.9373 458.733 -37.8105 459.765 -33.6002 460.248V460.248Z" fill="#D56536"/>
<path d="M-38.0428 462.239C-37.0881 462.245 -5.54878 462.347 0.753906 461.769C-0.366189 462.252 -1.57874 462.637 -2.35452 462.752C-6.72919 463.398 -38.2128 463.29 -39.1357 463.283C-40.0583 463.276 -54.7886 458.215 -54.7886 458.215L-54.7813 457.174C-54.4121 457.292 -39.0184 462.233 -38.0431 462.239L-38.0428 462.239Z" fill="#5A3A40"/>
<path d="M2.44158 460.753C2.30671 460.435 2.25633 460.087 2.22485 459.743C2.19403 459.405 2.18012 459.061 2.24275 458.728C2.26329 458.617 2.29809 458.499 2.34548 458.38C2.86443 458.602 3.38107 458.924 3.43575 459.786C3.45596 460.103 3.07884 460.485 2.4956 460.868C2.47638 460.831 2.45848 460.792 2.44191 460.753H2.44158Z" fill="#5A3A40"/>
</g>
<rect x="-0.0585938" y="572.436" width="229.608" height="45.2153" fill="#A2B8EB"/>
<path d="M202.786 603.651C202.786 590.396 213.531 579.651 226.786 579.651H392.941V603.651H202.786Z" fill="#E3D7C7"/>
<rect x="-367.059" y="644.651" width="918.354" height="50" fill="#403F3E"/>
<path d="M-42.0586 603.651H406.941V644.651H-38.3761L-42.0586 603.651Z" fill="#9AB7A3"/>
<path d="M198.392 643.7L261.725 613.864V591.651H329.204V613.864L388.032 643.7H329.204L303.497 613.864H286.442L268.095 643.7H198.392Z" fill="#E1D8C8"/>
<rect x="352.608" y="529.085" width="19.4322" height="46.5324" fill="#D69877"/>
<path d="M342.644 508.159L352.609 504.671H375.031L382.006 508.657L372.041 523.605H352.609L342.644 508.159Z" fill="#D69877"/>
<path d="M371.044 511.148H354.104L356.346 521.113H368.304L371.044 511.148Z" fill="#563B42"/>
<path d="M348.124 512.146L352.858 511.399L355.349 521.115H352.858L348.124 512.146Z" fill="#563B42"/>
<path d="M366.809 523.605L375.03 504.671L382.006 508.657L372.04 523.605V529.086V568.947H366.809V523.605Z" fill="#563B42" fill-opacity="0.5" style="mix-blend-mode:multiply"/>
<rect x="356.595" y="529.085" width="1.49479" height="6.62906" fill="#563B42"/>
<rect x="356.595" y="537.807" width="1.49479" height="6.62906" fill="#563B42"/>
<rect x="364.567" y="529.085" width="1.49479" height="6.62906" fill="#563B42"/>
<rect x="364.567" y="537.807" width="1.49479" height="6.62906" fill="#563B42"/>
<path d="M376.774 512.395L372.041 511.399L369.55 521.364H372.041L376.774 512.395Z" fill="#563B42"/>
<rect x="347.127" y="523.604" width="30.394" height="5.48089" fill="#839BB7"/>
<rect x="246.729" y="565.659" width="154.213" height="13.9559" fill="#D69877"/>
<rect x="246.729" y="565.659" width="154.213" height="5.93126" fill="#839BB7"/>
<rect x="246.729" y="567.752" width="111.996" height="2.09339" fill="#563B42"/>
<rect x="244.941" y="565.709" width="1.73816" height="13.9053" fill="#563B42"/>
<path d="M26.9375 551.809H34.2172L35.8349 574.052V596.295H25.3198V574.052L26.9375 551.809Z" fill="#9CB7A5"/>
<rect x="20.6689" y="589.42" width="19.8168" height="6.87521" fill="#5DA790"/>
<path d="M183.661 551.809H190.94L192.558 574.052V596.295H182.043V574.052L183.661 551.809Z" fill="#9CB7A5"/>
<rect x="177.392" y="589.42" width="19.8168" height="6.87521" fill="#5DA790"/>
<rect x="-212.895" y="518.799" width="418.835" height="3.78792" fill="#5DA790"/>
<rect x="-212.895" y="549.644" width="418.835" height="3.78792" fill="#5DA790"/>
<path d="M-16.4863 536.041L-2.93812 522.493L10.6101 536.041L-2.93812 549.59L-16.4863 536.041Z" stroke="#5DA790" stroke-width="2.42655"/>
<rect x="12.228" y="518.651" width="34.7805" height="2.42654" transform="rotate(90 12.228 518.651)" fill="#5DA790"/>
<path d="M11.4189 536.041L24.9672 522.493L38.5154 536.041L24.9672 549.59L11.4189 536.041Z" stroke="#5DA790" stroke-width="2.42655"/>
<rect x="8.18359" y="533.21" width="5.66194" height="5.66194" fill="#9CB7A5"/>
<rect x="40.1328" y="518.651" width="34.7805" height="2.42654" transform="rotate(90 40.1328 518.651)" fill="#5DA790"/>
<path d="M39.3242 536.041L52.8724 522.493L66.4206 536.041L52.8724 549.59L39.3242 536.041Z" stroke="#5DA790" stroke-width="2.42655"/>
<rect x="36.0889" y="533.21" width="5.66194" height="5.66194" fill="#9CB7A5"/>
<rect x="68.0386" y="518.651" width="34.7805" height="2.42654" transform="rotate(90 68.0386 518.651)" fill="#5DA790"/>
<path d="M67.2295 536.041L80.7777 522.493L94.3259 536.041L80.7777 549.59L67.2295 536.041Z" stroke="#5DA790" stroke-width="2.42655"/>
<rect x="63.9941" y="533.21" width="5.66194" height="5.66194" fill="#9CB7A5"/>
<rect x="95.9438" y="518.651" width="34.7805" height="2.42654" transform="rotate(90 95.9438 518.651)" fill="#5DA790"/>
<path d="M95.1348 536.041L108.683 522.493L122.231 536.041L108.683 549.59L95.1348 536.041Z" stroke="#5DA790" stroke-width="2.42655"/>
<rect x="91.8994" y="533.21" width="5.66194" height="5.66194" fill="#9CB7A5"/>
<rect x="123.849" y="518.651" width="34.7805" height="2.42654" transform="rotate(90 123.849 518.651)" fill="#5DA790"/>
<path d="M123.04 536.041L136.588 522.493L150.136 536.041L136.588 549.59L123.04 536.041Z" stroke="#5DA790" stroke-width="2.42655"/>
<rect x="119.805" y="533.21" width="5.66194" height="5.66194" fill="#9CB7A5"/>
<rect x="151.754" y="518.651" width="34.7805" height="2.42654" transform="rotate(90 151.754 518.651)" fill="#5DA790"/>
<path d="M150.945 536.041L164.494 522.493L178.042 536.041L164.494 549.59L150.945 536.041Z" stroke="#5DA790" stroke-width="2.42655"/>
<rect x="147.71" y="533.21" width="5.66194" height="5.66194" fill="#9CB7A5"/>
<rect x="179.66" y="518.651" width="34.7805" height="2.42654" transform="rotate(90 179.66 518.651)" fill="#5DA790"/>
<path d="M178.851 536.041L192.399 522.493L205.947 536.041L192.399 549.59L178.851 536.041Z" stroke="#5DA790" stroke-width="2.42655"/>
<rect x="175.615" y="533.21" width="5.66194" height="5.66194" fill="#9CB7A5"/>
<rect x="127.667" y="514.651" width="111.311" height="7.29908" fill="#E3D7C7"/>
<rect x="133.026" y="522.072" width="100.592" height="83.6893" fill="#E3D7C7"/>
<rect x="135.878" y="523.775" width="94.888" height="79.3775" fill="#D46436"/>
<path d="M138.797 581.231V604.112H134.675V545.57H177.344L183.116 532.79H166.213L171.572 523.102H230.732V548.25L209.5 604.112H156.525L177.344 550.105H159.411L138.797 581.231Z" fill="#1D2834" fill-opacity="0.1" style="mix-blend-mode:multiply"/>
<rect x="135.878" y="523.775" width="1.21651" height="22.5055" fill="#D57D55"/>
<rect x="149.26" y="523.775" width="1.21651" height="22.5055" fill="#D57D55"/>
<rect x="162.642" y="523.775" width="1.21651" height="22.5055" fill="#D57D55"/>
<rect x="176.022" y="523.775" width="1.21651" height="22.5055" fill="#D57D55"/>
<rect x="189.404" y="523.775" width="1.21651" height="22.5055" fill="#D57D55"/>
<rect x="202.786" y="523.775" width="1.21651" height="22.5055" fill="#D57D55"/>
<rect x="216.168" y="523.775" width="1.21651" height="22.5055" fill="#D57D55"/>
<rect x="229.55" y="523.775" width="1.21651" height="22.5055" fill="#D57D55"/>
<rect x="130.708" y="532.899" width="105.228" height="3.04128" fill="#FFFDFB"/>
<rect x="130.708" y="545.064" width="105.228" height="3.04128" fill="#FFFDFB"/>
<rect x="169.718" y="539.589" width="54.7431" height="15.5105" rx="1.21651" fill="#D57D55"/>
<rect x="179.064" y="555.101" width="35.583" height="49.2688" fill="#E3D7C7"/>
<rect x="169.94" y="572.436" width="55.9596" height="4.56192" fill="#FFFDFB"/>
<rect x="169.94" y="572.436" width="3.04128" height="33.15" fill="#FFFDFB"/>
<rect x="222.858" y="572.436" width="3.04128" height="33.15" fill="#FFFDFB"/>
<rect x="182.105" y="580.039" width="29.5004" height="25.5468" fill="#D57D55"/>
<path d="M177.019 549.344C176.73 549.344 176.446 549.311 176.168 549.245C175.892 549.178 175.648 549.084 175.438 548.964L175.697 548.411C175.855 548.5 176.048 548.579 176.275 548.648C176.504 548.718 176.746 548.752 177.002 548.752C177.19 548.752 177.333 548.727 177.43 548.676C177.528 548.624 177.595 548.548 177.63 548.448C177.666 548.348 177.684 548.229 177.684 548.09C177.684 548.013 177.671 547.943 177.645 547.879C177.618 547.815 177.566 547.757 177.487 547.704C177.41 547.649 177.292 547.599 177.134 547.552L176.334 547.304C176.12 547.238 175.952 547.153 175.83 547.05C175.707 546.945 175.621 546.821 175.57 546.678C175.52 546.535 175.494 546.375 175.494 546.196C175.494 545.935 175.556 545.723 175.68 545.559C175.804 545.394 175.973 545.272 176.188 545.193C176.404 545.114 176.645 545.075 176.912 545.075C177.211 545.075 177.473 545.101 177.698 545.153C177.925 545.206 178.125 545.283 178.296 545.385L178.093 545.926C177.95 545.854 177.786 545.793 177.602 545.742C177.42 545.69 177.217 545.664 176.994 545.664C176.755 545.664 176.567 545.698 176.43 545.768C176.293 545.837 176.224 545.974 176.224 546.176C176.224 546.314 176.258 546.421 176.326 546.498C176.393 546.575 176.526 546.645 176.723 546.709L177.537 546.966C177.817 547.052 178.025 547.183 178.16 547.357C178.297 547.532 178.366 547.779 178.366 548.098C178.366 548.339 178.32 548.553 178.228 548.741C178.136 548.927 177.99 549.075 177.791 549.183C177.594 549.291 177.336 549.344 177.019 549.344ZM180.939 549.344C180.591 549.344 180.306 549.308 180.082 549.237C179.861 549.166 179.688 549.067 179.564 548.941C179.44 548.815 179.353 548.668 179.304 548.499C179.256 548.33 179.231 548.146 179.231 547.949V545.139H179.978V547.994C179.978 548.199 180.018 548.357 180.099 548.468C180.18 548.577 180.293 548.652 180.437 548.693C180.582 548.733 180.749 548.752 180.939 548.752C181.134 548.752 181.299 548.732 181.432 548.69C181.567 548.649 181.671 548.574 181.742 548.465C181.814 548.354 181.849 548.197 181.849 547.994V545.139H182.596V547.927C182.596 548.122 182.573 548.305 182.526 548.476C182.479 548.647 182.396 548.798 182.278 548.93C182.159 549.059 181.992 549.161 181.776 549.234C181.56 549.308 181.281 549.344 180.939 549.344ZM183.675 545.142H185.307C185.726 545.142 186.045 545.245 186.263 545.449C186.481 545.652 186.59 545.988 186.59 546.455C186.59 546.777 186.544 547.038 186.454 547.239C186.364 547.44 186.22 547.587 186.023 547.681C185.826 547.773 185.568 547.819 185.251 547.819H184.425V549.274H183.675V545.142ZM185.341 547.27C185.491 547.27 185.604 547.239 185.679 547.177C185.756 547.113 185.808 547.023 185.834 546.906C185.862 546.79 185.877 546.653 185.877 546.495C185.877 546.354 185.863 546.222 185.837 546.098C185.813 545.974 185.764 545.874 185.69 545.799C185.619 545.722 185.511 545.683 185.366 545.683H184.425V547.27H185.341ZM187.435 545.142H190.101V545.703H188.182V546.887H189.881V547.431H188.182V548.713H190.132V549.274H187.435V545.142ZM191.048 549.274V545.142H192.852C193.173 545.142 193.428 545.189 193.618 545.283C193.81 545.377 193.947 545.515 194.03 545.697C194.114 545.88 194.156 546.105 194.156 546.374C194.156 546.56 194.138 546.726 194.1 546.873C194.064 547.019 194.002 547.145 193.914 547.25C193.828 547.354 193.709 547.437 193.559 547.501L194.382 549.274H193.61L192.852 547.614H191.798V549.274H191.048ZM191.798 547.073H192.883C193.033 547.073 193.147 547.044 193.226 546.985C193.305 546.927 193.36 546.848 193.39 546.749C193.42 546.647 193.435 546.535 193.435 546.413C193.435 546.295 193.423 546.18 193.398 546.069C193.376 545.957 193.329 545.865 193.257 545.793C193.186 545.72 193.076 545.683 192.928 545.683H191.798V547.073ZM195.213 549.274V545.142H196.002L197.313 547.354H197.183L198.488 545.142H199.283V549.274H198.581V546.044L198.643 546.061L197.507 548.036H196.994L195.83 546.072L195.918 546.055V549.274H195.213ZM200.055 549.274L201.475 545.142H202.383L203.814 549.274H203.028L201.909 545.652H201.985L200.836 549.274H200.055ZM200.79 548.482L200.945 547.91H202.929L203.079 548.482H200.79ZM204.587 549.274V545.142H206.39C206.711 545.142 206.967 545.189 207.157 545.283C207.348 545.377 207.486 545.515 207.568 545.697C207.653 545.88 207.695 546.105 207.695 546.374C207.695 546.56 207.676 546.726 207.639 546.873C207.603 547.019 207.541 547.145 207.453 547.25C207.366 547.354 207.248 547.437 207.098 547.501L207.92 549.274H207.148L206.39 547.614H205.336V549.274H204.587ZM205.336 547.073H206.421C206.572 547.073 206.686 547.044 206.765 546.985C206.844 546.927 206.898 546.848 206.928 546.749C206.959 546.647 206.974 546.535 206.974 546.413C206.974 546.295 206.961 546.18 206.937 546.069C206.914 545.957 206.867 545.865 206.796 545.793C206.725 545.72 206.615 545.683 206.466 545.683H205.336V547.073ZM210.288 547.273L210.127 547.276L209.499 548.034V549.274H208.752V545.142H209.499V547.228L211.221 545.142H212.041L210.288 547.273ZM209.91 547.267L210.437 546.842L212.139 549.274H211.3L209.91 547.267ZM212.804 545.142H215.47V545.703H213.551V546.887H215.251V547.431H213.551V548.713H215.501V549.274H212.804V545.142ZM217.17 549.274V545.723H216.006V545.142H219.081V545.723H217.917V549.274H217.17Z" fill="white"/>
<rect x="62.9414" y="564.947" width="70.0847" height="40.814" fill="#E3D7C7"/>
<rect x="84.791" y="580.2" width="29.5004" height="25.5468" fill="#D57D55"/>
<g clip-path="url(#clip2_221_16019)">
<g style="mix-blend-mode:multiply" opacity="0.5">
<path fill-rule="evenodd" clip-rule="evenodd" d="M73.1865 619.966C104.507 624.29 123.533 626.113 130.659 626.913C134.306 627.321 134.077 626.885 131.001 628.422C127.883 629.979 125.211 631.448 123.442 632.452C120.434 634.157 120.595 633.7 117.052 633.212C81.0369 628.256 66.3037 623.897 66.3037 623.897C64.032 623.449 73.1865 619.963 73.1865 619.963V619.966Z" fill="#B0B0B0"/>
</g>
<path fill-rule="evenodd" clip-rule="evenodd" d="M92.254 613.72C113.498 611.594 128.686 616.474 124.784 627.716C124.289 629.142 120.889 628.561 119.911 628.422C118.677 628.246 117.504 628.078 115.951 627.851C115.591 628.596 115.172 629.122 114.232 629.615C113.727 629.881 111.473 630.943 110.887 630.943C108.859 630.943 108.206 628.988 107.822 626.644C97.7498 625.122 85.4642 623.173 77.1489 621.608C72.3493 620.705 69.4218 620.771 68.8337 619.769C68.2105 611.763 76.4428 609.881 92.2566 613.72H92.254Z" fill="#302C2A"/>
<path fill-rule="evenodd" clip-rule="evenodd" d="M81.3827 621.707C81.5034 620.643 80.4982 620.522 79.5483 620.593C79.4378 621.908 78.7467 623.493 77.4727 625.349C77.4727 625.349 78.4753 624.851 79.9479 624.16C80.5786 623.84 81.2043 623.277 81.3827 621.707Z" fill="#302C2A"/>
<path fill-rule="evenodd" clip-rule="evenodd" d="M76.314 616.562C74.3715 616.562 72.8362 618.57 72.8839 621.045C72.9316 623.52 74.5449 625.527 76.4874 625.527C78.4299 625.527 79.9653 623.52 79.9175 621.045C79.8698 618.57 78.2565 616.562 76.314 616.562Z" fill="#4A4441"/>
<path fill-rule="evenodd" clip-rule="evenodd" d="M76.3446 618.035C75.0404 618.035 74.0101 619.383 74.0427 621.046C74.0754 622.709 75.1585 624.057 76.4627 624.057C77.7669 624.057 78.7972 622.709 78.7645 621.046C78.7318 619.383 77.6488 618.035 76.3446 618.035Z" fill="#96918E"/>
<path fill-rule="evenodd" clip-rule="evenodd" d="M76.3523 618.484C75.9577 618.481 75.6135 618.622 75.3144 618.856C74.744 619.306 74.3746 620.116 74.3922 621.044C74.4198 622.458 75.3421 623.605 76.4503 623.605C77.5585 623.605 78.4129 622.453 78.4103 621.044C78.4103 620.172 78.0686 619.425 77.5308 618.962C77.1991 618.677 76.7895 618.486 76.3498 618.481L76.3523 618.484Z" fill="#A8A4A1"/>
<path fill-rule="evenodd" clip-rule="evenodd" d="M78.3302 620.375C78.2095 619.784 77.8929 619.332 77.5336 618.964C76.1138 620.826 76.4279 621.276 78.3302 620.375Z" fill="#3D3633"/>
<path fill-rule="evenodd" clip-rule="evenodd" d="M78.3144 621.903C78.1938 622.494 77.8319 623.017 77.4625 623.253C76.0428 621.392 76.4147 621 78.3144 621.903Z" fill="#3D3633"/>
<path fill-rule="evenodd" clip-rule="evenodd" d="M74.4746 620.257C74.545 619.694 74.9395 619.15 75.3164 618.856C76.5452 620.717 76.1206 621.158 74.4746 620.257Z" fill="#3D3633"/>
<path fill-rule="evenodd" clip-rule="evenodd" d="M74.5176 621.809C74.6231 622.4 74.9473 622.765 75.3016 623.152C76.5304 621.291 76.1635 620.906 74.5176 621.809Z" fill="#3D3633"/>
<path fill-rule="evenodd" clip-rule="evenodd" d="M76.3063 621.563C76.4596 621.563 76.5852 621.374 76.5852 621.143C76.5852 620.911 76.4596 620.723 76.3063 620.723C76.153 620.723 76.0273 620.911 76.0273 621.143C76.0273 621.374 76.153 621.563 76.3063 621.563Z" fill="#857F7B"/>
<path fill-rule="evenodd" clip-rule="evenodd" d="M72.3294 620.635C72.6561 613.124 80.7627 613.735 80.9436 621.674L105.422 625.656C105.341 621.176 107.985 619.398 110.347 619.541C112.119 619.649 114.584 620.628 115.403 623.452C115.682 624.413 115.913 625.701 115.913 627.049C122.09 627.673 124.48 628.091 124.48 628.091C131.054 624.119 134.343 622.134 134.343 622.134C134.838 617.506 134.242 614.671 132.559 613.625C125.53 610.05 122.017 608.264 122.017 608.264C118.813 603.196 117.542 600.683 116.815 598.965C115.019 596.417 114.493 595.657 112.928 595.708C101.62 596.057 87.4345 595.225 76.1515 595.994C72.352 596.253 71.8243 595.879 71.1056 598.52C69.0274 606.162 68.8892 611.124 68.3213 619.584C70.1582 620.298 71.6911 620.489 72.3269 620.638L72.3294 620.635Z" fill="#D1D1D1"/>
<path fill-rule="evenodd" clip-rule="evenodd" d="M116.836 598.992C114.295 600.741 103.791 600.939 103.791 600.939C108.191 607.537 109.174 609.077 110.086 611.106C122.005 611.763 122.859 608.697 122.859 608.697C121.927 606.994 120.695 605.603 119.851 604.234C117.974 601.188 116.836 598.992 116.836 598.992Z" fill="#4D606B"/>
<path fill-rule="evenodd" clip-rule="evenodd" d="M116.968 623.022C121.813 623.475 124.17 623.827 124.17 623.827C123.582 620.723 123.602 619.827 122.627 618.288C120.718 615.27 116.664 615.954 109.658 611.748C109.658 611.748 106.68 607.663 103.647 601.868C101.418 597.612 100.436 597.672 94.8069 597.481C87.0998 597.222 77.5206 596.945 74.0729 596.897C71.6655 596.864 72.5501 596.792 71.7133 599.362C70.0045 604.609 70.1226 611.861 69.5723 618.64C71.0448 619.093 71.8565 619.302 71.8565 619.302C72.6883 610.576 83.1822 613.662 82.6017 620.698C93.3695 622.23 104.514 624.214 104.514 624.214C104.738 619.787 107.64 617.715 110.673 617.936C113.146 618.117 115.704 619.822 116.971 623.022H116.968Z" fill="#C4C4C4"/>
<path fill-rule="evenodd" clip-rule="evenodd" d="M74.6832 610.956C74.932 610.377 75.0577 610.088 75.0577 610.088C75.0577 610.088 72.9946 609.814 70.0972 609.441C70.0972 609.441 69.8685 609.738 69.7881 610.266C72.8463 610.709 74.6832 610.956 74.6832 610.956Z" fill="#E0E0E0"/>
<path fill-rule="evenodd" clip-rule="evenodd" d="M96.2168 600.683C100.509 600.369 101.594 600.821 102.029 601.579C105.854 607.99 107.713 610.664 107.713 610.664C106.278 610.616 97.3878 609.829 96.1841 609.303C95.7318 603.913 96.2168 600.686 96.2168 600.686V600.683Z" fill="#4D606B"/>
<path fill-rule="evenodd" clip-rule="evenodd" d="M122.306 610.237C121.821 610.732 119.868 611.411 117.725 611.779C119.011 612.563 118.893 612.506 118.893 612.506C121.13 612.063 122.678 611.54 123.132 610.876C122.58 610.451 122.303 610.237 122.303 610.237H122.306Z" fill="#A1A1A1"/>
<path fill-rule="evenodd" clip-rule="evenodd" d="M84.6193 620.938C91.3639 621.909 94.7388 622.392 94.7388 622.392C94.7312 620.128 94.5402 617.658 94.5453 615.514C94.5453 614.908 94.6835 614.84 94.691 614.249C94.7463 609.135 95.0881 603.388 95.1961 598.958C88.9339 598.661 85.2073 598.619 85.2073 598.619C84.3102 604.852 84.1443 612.81 84.6218 620.938H84.6193Z" fill="#544E4E"/>
<path fill-rule="evenodd" clip-rule="evenodd" d="M94.7386 622.391C87.9915 621.42 84.6191 620.937 84.6191 620.937C85.5213 620.638 85.9711 620.49 85.9711 620.49C85.8856 618.731 85.8429 617.851 85.8429 617.851C91.7684 618.588 94.7286 618.958 94.7286 618.958C94.7336 621.247 94.7361 622.391 94.7361 622.391H94.7386Z" fill="#B5B5B5"/>
<path fill-rule="evenodd" clip-rule="evenodd" d="M102.22 602.181C102.647 602.236 102.863 602.533 102.868 603.071C102.868 603.071 102.861 605.395 102.933 609.994C102.823 609.981 102.68 610.051 102.338 609.968C102.338 609.968 102.298 607.373 102.22 602.181Z" fill="#3B3434"/>
<path fill-rule="evenodd" clip-rule="evenodd" d="M96.6164 601.254C96.6063 602.567 96.6013 603.86 96.5988 605.136C96.5988 606.416 96.5988 607.679 96.6038 608.921L105.871 609.968L106.196 609.525L101.456 601.81L101.449 601.795C101.341 601.602 101.19 601.458 101.001 601.37C100.793 601.272 100.524 601.229 100.2 601.244L96.6164 601.254ZM95.752 605.136C95.752 603.722 95.7595 602.288 95.7721 600.832V600.412L100.165 600.399C100.627 600.379 101.024 600.447 101.361 600.603C101.713 600.766 101.986 601.021 102.182 601.365L107.221 609.565L108.178 611.072L106.268 610.868L95.7645 609.681V609.304C95.7545 607.938 95.752 606.549 95.7545 605.136H95.752Z" fill="#473F3F"/>
<path fill-rule="evenodd" clip-rule="evenodd" d="M106.198 607.263C106.181 608.79 106.223 610.206 106.246 611.66C105.874 611.755 105.502 611.836 105.135 611.906C104.638 611.999 104.625 612.045 104.148 611.879C103.916 611.798 103.801 611.758 103.801 611.758L103.901 606.788C105.115 606.571 105.63 606.478 105.63 606.478C106.281 606.695 106.208 606.516 106.198 607.26V607.263Z" fill="#3D3636"/>
<path fill-rule="evenodd" clip-rule="evenodd" d="M104.125 606.946C104.167 606.961 104.21 606.976 104.253 606.994C104.296 607.009 104.338 607.024 104.381 607.042C104.424 607.057 104.466 607.072 104.509 607.089C104.688 607.155 104.695 607.125 104.881 607.084C104.964 607.067 105.044 607.049 105.127 607.034C105.21 607.016 105.291 606.999 105.374 606.984C105.457 606.969 105.537 606.948 105.62 606.933C105.625 606.959 105.63 606.986 105.635 607.011C105.555 607.029 105.474 607.044 105.394 607.062C105.313 607.079 105.233 607.097 105.153 607.112C104.668 607.208 104.67 607.718 104.668 608.324L104.662 609.436L104.652 611.66H104.572C104.572 611.287 104.575 610.918 104.577 610.548C104.577 610.178 104.58 609.806 104.582 609.436C104.582 609.066 104.585 608.694 104.587 608.324C104.587 607.907 104.635 607.208 104.346 607.122C104.303 607.109 104.263 607.092 104.223 607.077C104.183 607.062 104.14 607.047 104.1 607.031C104.11 607.006 104.117 606.981 104.127 606.956L104.125 606.946Z" fill="#473F3F"/>
<path fill-rule="evenodd" clip-rule="evenodd" d="M122.062 608.636C118.265 602.489 116.453 599.319 116.453 599.319C116.139 599.46 116.192 599.515 115.936 599.598C119.853 605.942 121.386 609.268 121.386 609.268C121.657 609.051 121.884 608.84 122.065 608.636H122.062Z" fill="#363030"/>
<path fill-rule="evenodd" clip-rule="evenodd" d="M119.139 618.781C113.367 617.918 105.429 616.751 94.543 615.514L94.6887 614.249C107.344 615.934 114.772 617.066 117.132 617.395C117.571 617.456 118.639 617.669 119.139 618.781Z" fill="#D6D6D6"/>
<path fill-rule="evenodd" clip-rule="evenodd" d="M96.5986 614.533C97.448 614.624 97.8727 614.669 97.8727 614.669C97.8727 614.669 97.9003 613.489 97.9581 611.133C97.9581 611.133 97.5058 611.09 96.5986 611.004V614.536V614.533Z" fill="#808080"/>
<path fill-rule="evenodd" clip-rule="evenodd" d="M97.0488 614.582C97.6946 614.685 97.8957 614.667 97.8957 614.667C97.8957 614.667 97.9183 613.488 97.961 611.131C97.961 611.131 97.7399 611.148 97.0488 611.048V614.579V614.582Z" fill="#5C5C5C"/>
<path fill-rule="evenodd" clip-rule="evenodd" d="M115.935 599.598C114.485 600.094 113.038 600.439 111.59 600.63C111.125 605.271 111.231 608.719 111.231 608.719C117.066 608.82 121.172 608.827 121.172 608.827C119.101 604.896 117.355 601.819 115.933 599.596L115.935 599.598Z" fill="#607480"/>
<path fill-rule="evenodd" clip-rule="evenodd" d="M111.623 600.464C111.613 601.777 111.608 603.073 111.606 604.345C111.606 605.626 111.606 606.889 111.611 608.131L120.273 608.332L120.597 607.862L116.463 600.585L116.455 600.57C116.347 600.386 116.197 600.258 116.008 600.185C115.8 600.107 115.531 600.089 115.207 600.132L111.623 600.464ZM110.759 604.423C110.759 603.01 110.769 601.576 110.779 600.117L115.171 599.29C115.634 599.227 116.081 599.106 116.418 599.234C116.77 599.368 116.991 599.75 117.187 600.074L122.195 608.36L121.911 609.663L110.769 608.966V608.589C110.759 607.223 110.756 605.835 110.759 604.423Z" fill="#43545E"/>
<path fill-rule="evenodd" clip-rule="evenodd" d="M118.591 611.104C116.44 611.512 114.317 611.66 110.804 611.481C110.073 611.446 109.977 611.559 109.618 610.938C109.072 609.985 108.472 609.004 107.424 607.316C106.368 605.618 105.557 604.328 103.999 601.898C103.627 601.317 103.541 600.615 104.23 600.57C108.248 600.308 112.126 600.046 115.95 598.771C116.656 598.537 116.531 598.525 116.905 599.128C118.9 602.346 120.858 605.477 122.856 608.694C122.278 610.274 120.049 610.825 118.591 611.102V611.104ZM118.466 610.435C120.37 610.075 121.318 609.457 122.062 608.637L116.367 599.415C113.601 600.695 107.534 601.133 104.745 601.324C106.406 603.92 109.168 607.847 110.691 610.402C111.012 610.943 111.246 610.82 111.909 610.843C114.892 610.953 116.548 610.797 118.466 610.435Z" fill="#473F3F"/>
<g style="mix-blend-mode:overlay" opacity="0.59">
<path fill-rule="evenodd" clip-rule="evenodd" d="M113.123 600.614C114.264 610.208 112.955 612.356 109.19 607.061C110.459 609.302 111.14 610.366 111.231 610.253C112.673 610.409 113.794 610.465 114.588 610.424C113.01 603.027 114.138 600.549 117.971 602.989C117.071 601.467 116.621 600.707 116.621 600.707C116.272 600.207 115.799 600.016 115.204 600.136C113.817 600.458 113.121 600.619 113.121 600.619L113.123 600.614Z" fill="#CCCCCC"/>
</g>
<g style="mix-blend-mode:overlay" opacity="0.59">
<path fill-rule="evenodd" clip-rule="evenodd" d="M109.49 601.552C108.065 602.53 107.505 603.536 107.811 604.573C106.592 602.756 105.984 601.848 105.984 601.848C107.449 601.831 108.618 601.733 109.492 601.552H109.49Z" fill="#CCCCCC"/>
</g>
<g style="mix-blend-mode:overlay" opacity="0.59">
<path fill-rule="evenodd" clip-rule="evenodd" d="M121.562 608.485C121.128 609.126 120.567 609.544 119.884 609.74C120.384 608.52 120.492 607.461 120.203 606.571C121.11 607.846 121.562 608.485 121.562 608.485Z" fill="#CCCCCC"/>
</g>
<g style="mix-blend-mode:overlay" opacity="0.59">
<path fill-rule="evenodd" clip-rule="evenodd" d="M100.116 601.848C98.4929 608.63 97.445 610.182 96.97 606.507C96.97 606.507 96.9198 607.465 96.9072 608.741C97.8697 608.771 98.4451 608.869 98.4577 608.869C99.9529 603.851 100.903 602.128 101.39 604.507C101.659 603.514 101.795 603.018 101.795 603.018C101.265 601.718 100.704 601.328 100.116 601.848Z" fill="#CCCCCC"/>
</g>
<path fill-rule="evenodd" clip-rule="evenodd" d="M122.896 628.429C117.451 627.89 115.438 627.513 115.438 627.513C115.606 624.505 115.083 623.672 115.398 623.453C120.991 624.228 124.168 624.293 124.168 624.293C131.053 621.486 134.501 619.743 134.501 619.743C134.503 619.373 134.506 619.19 134.506 619.19C135.451 619.451 135.199 620.138 135.104 623.169C130.832 625.629 128.058 626.794 126.329 627.785C124.509 628.826 124.404 628.58 122.899 628.431L122.896 628.429Z" fill="#544E4E"/>
<path fill-rule="evenodd" clip-rule="evenodd" d="M124.763 617.617C125.585 621.035 125.241 623.08 125.241 623.08C125.241 623.08 125.778 623.09 126.6 623.09C126.673 621.732 126.361 619.692 125.919 617.888C125.364 617.659 125.361 617.664 124.761 617.617H124.763Z" fill="#C4C4C4"/>
<path fill-rule="evenodd" clip-rule="evenodd" d="M121.946 618.272C122.836 619.592 123.266 621.758 123.409 623.645C124.424 623.886 124.17 623.826 124.17 623.826C125.281 623.358 126.09 623.081 126.09 623.081C126.226 620.895 125.648 618.682 124.763 617.618C123.612 618.015 122.504 618.101 122.504 618.101C121.858 618.108 121.946 618.272 121.946 618.272Z" fill="white"/>
<path fill-rule="evenodd" clip-rule="evenodd" d="M122.989 623.802C123.856 624.024 123.745 623.981 124.17 623.976C124.429 623.973 124.396 623.78 124.396 623.78C124.042 620.879 123.816 619.405 122.841 618.065C122.019 618.075 121.675 618.049 121.675 618.049C122.622 619.642 122.858 621.679 122.989 623.805V623.802Z" fill="#E67A4C"/>
<path fill-rule="evenodd" clip-rule="evenodd" d="M127.327 622.359C130.626 620.822 132.82 619.944 132.82 619.944C132.702 618.46 132.614 616.742 132.362 615.784C132.362 615.784 129.42 616.712 126.646 617.72C126.904 618.676 127.13 620.221 127.327 622.359Z" fill="#C4C4C4"/>
<path fill-rule="evenodd" clip-rule="evenodd" d="M133.578 614.691C134.035 615.584 134.478 617.325 134.505 619.186C133.686 619.526 133.086 619.825 133.086 619.825C133.025 618.06 132.973 616.472 132.696 615.577C132.668 615.486 132.166 615.396 132.136 615.315C132.87 615.036 133.578 614.694 133.578 614.694V614.691Z" fill="#FAFAFA"/>
<path fill-rule="evenodd" clip-rule="evenodd" d="M134.307 619.269C134.438 619.214 134.503 619.189 134.503 619.189C134.536 617.481 134.254 616.027 133.656 614.832C134.083 616.776 134.3 618.258 134.307 619.272V619.269Z" fill="#E67A4C"/>
<path fill-rule="evenodd" clip-rule="evenodd" d="M115.063 613.123C119.753 613.209 123.18 612.344 124.499 610.274C124.499 610.274 126.909 611.607 131.727 614.273C131.727 614.273 131.629 614.6 131.43 615.252C131.43 615.252 129.814 615.848 126.585 617.037C126.585 617.037 125.721 616.995 123.992 616.909C122.477 615.903 119.217 614.557 115.066 613.121L115.063 613.123Z" fill="#E8E8E8"/>
<path fill-rule="evenodd" clip-rule="evenodd" d="M103.551 599.962C109.303 599.579 113.369 599.194 115.553 598.402C114.801 596.85 114.065 596.382 113.259 596.063C111.256 596.445 107.147 596.483 101.016 597.104C102.302 598.108 103.084 598.923 103.554 599.962H103.551Z" fill="#E8E8E8"/>
<path fill-rule="evenodd" clip-rule="evenodd" d="M127.133 618.004C130.442 616.862 132.096 616.294 132.096 616.294C132.023 616.671 131.965 616.842 131.925 616.809C128.794 617.896 127.228 618.439 127.228 618.439C127.165 618.15 127.133 618.006 127.133 618.006V618.004Z" fill="#A1A1A1"/>
<path fill-rule="evenodd" clip-rule="evenodd" d="M127.324 619.073C130.634 617.825 132.287 617.202 132.287 617.202C132.214 617.581 132.157 617.755 132.116 617.722C128.985 618.91 127.42 619.503 127.42 619.503C127.357 619.216 127.324 619.073 127.324 619.073Z" fill="#A1A1A1"/>
<path fill-rule="evenodd" clip-rule="evenodd" d="M127.452 620.111C130.762 618.833 132.415 618.197 132.415 618.197C132.342 618.577 132.284 618.75 132.244 618.72C129.113 619.935 127.548 620.541 127.548 620.541L127.452 620.111Z" fill="#A1A1A1"/>
<path fill-rule="evenodd" clip-rule="evenodd" d="M127.578 621.175C130.888 619.822 132.541 619.145 132.541 619.145C132.468 619.527 132.41 619.701 132.37 619.671C129.239 620.959 127.674 621.603 127.674 621.603C127.611 621.318 127.578 621.175 127.578 621.175Z" fill="#A1A1A1"/>
<path fill-rule="evenodd" clip-rule="evenodd" d="M95.0059 604.313C90.3872 604.125 87.0802 604.135 87.0802 604.135C86.1529 606.94 85.2583 610.798 84.4014 615.711C84.2481 609.455 84.5019 603.506 85.2055 598.619C85.2055 598.619 88.9322 598.661 95.1944 598.958C95.1541 600.596 95.0813 602.412 95.0034 604.311L95.0059 604.313Z" fill="#474040"/>
<path fill-rule="evenodd" clip-rule="evenodd" d="M88.4121 614.242C89.8344 614.159 91.312 613.873 92.5257 613.744C92.38 612.341 92.6865 611.337 92.3649 609.078C91.6336 608.834 90.9803 608.53 90.9803 608.53C90.0304 608.5 88.985 608.678 88.2412 608.686C88.2789 609.896 88.2839 610.882 88.3292 611.906C88.3417 612.177 88.4372 612.504 88.4422 612.771C88.4523 613.249 88.4171 613.81 88.4096 614.24L88.4121 614.242Z" fill="#C48D35"/>
<path fill-rule="evenodd" clip-rule="evenodd" d="M87.251 609.46C88.6733 609.377 90.1509 609.09 91.3646 608.962C91.2188 607.558 91.1862 606.243 91.2364 604.535C90.5052 604.291 90.0528 604.009 90.0528 604.009C89.103 603.979 87.8214 604.125 87.0801 604.132C87.1178 605.342 87.1253 606.102 87.1705 607.123C87.1831 607.395 87.2786 607.722 87.2836 607.988C87.2937 608.466 87.2585 609.03 87.251 609.457V609.46Z" fill="#CC963F"/>
<path fill-rule="evenodd" clip-rule="evenodd" d="M84.4061 615.921C86.326 615.793 88.2107 615.28 89.8491 615.081C89.6531 612.911 90.0677 611.359 89.633 607.865C88.6479 607.487 87.7634 607.017 87.7634 607.017C86.4818 606.969 85.0695 607.248 84.0694 607.258C84.1197 609.13 84.1272 610.657 84.1875 612.241C84.2026 612.664 84.3333 613.167 84.3408 613.577C84.3534 614.317 84.3885 615.119 84.4061 615.919V615.921Z" fill="#D69F46"/>
<path fill-rule="evenodd" clip-rule="evenodd" d="M89.4067 614.85C89.3816 613.842 89.4394 608.358 88.8865 608.26C88.4719 608.142 88.0171 608.25 88.6026 607.903C86.7757 608.044 85.3685 608.154 84.1221 608.247C84.1849 610.959 84.592 613.24 84.5643 615.338C87.3788 615.112 88.6051 614.886 89.4067 614.85Z" fill="#DEAA56"/>
<path fill-rule="evenodd" clip-rule="evenodd" d="M84.0967 608.13C85.2727 608.052 86.6071 607.813 87.6122 607.692C87.4916 606.362 87.5142 604.792 87.3584 602.958C86.7553 602.727 86.2477 602.556 86.2477 602.556C85.333 602.548 84.5038 602.571 83.8906 602.579C83.9409 604.455 84.1294 606.231 84.0992 608.13H84.0967Z" fill="#D6A453"/>
<path fill-rule="evenodd" clip-rule="evenodd" d="M87.2176 607.238C87.2025 606.622 87.2377 603.261 86.8984 603.201C86.6446 603.128 86.3657 603.196 86.725 602.982C85.6043 603.067 84.677 603.125 83.9131 603.183C83.9508 604.843 84.0463 606.589 84.0789 607.718C85.8028 607.58 86.725 607.258 87.2176 607.238Z" fill="#DEAA56"/>
<path fill-rule="evenodd" clip-rule="evenodd" d="M74.7611 597.775C73.9997 602.439 73.8363 606.783 73.6931 611.909C73.6855 612.171 73.3589 612.742 73.3538 613.003C73.3061 615.242 73.1176 617.642 73.1855 619.966C73.1855 619.966 77.1936 620.663 83.9055 621.634C83.9407 615.755 84.3604 607.945 85.1595 598.2C78.5078 597.974 74.7585 597.775 74.7585 597.775H74.7611Z" fill="#D9D9D9"/>
<path fill-rule="evenodd" clip-rule="evenodd" d="M74.5605 611.932C75.4074 612.022 75.8321 612.068 75.8321 612.068C75.8321 612.068 75.8999 610.888 76.0381 608.531C76.0381 608.531 75.5858 608.488 74.6812 608.403C74.6008 610.757 74.5605 611.934 74.5605 611.934V611.932Z" fill="#808080"/>
<path fill-rule="evenodd" clip-rule="evenodd" d="M75.0078 611.979C75.6511 612.082 75.8521 612.065 75.8521 612.065C75.8521 612.065 75.915 610.885 76.0381 608.528C76.0381 608.528 75.817 608.546 75.1284 608.445C75.048 610.799 75.0078 611.977 75.0078 611.977V611.979Z" fill="#5C5C5C"/>
<path fill-rule="evenodd" clip-rule="evenodd" d="M84.3811 599.746C78.3903 599.236 75.2794 599.233 75.2794 599.233C74.9954 600.644 74.7089 603.542 74.3848 607.491C74.3848 607.491 77.4907 607.818 83.7026 608.47C83.7026 608.47 83.9966 605.25 84.3811 599.746Z" fill="#C9C9C9"/>
<path fill-rule="evenodd" clip-rule="evenodd" d="M73.6937 611.907C73.5028 612.445 73.3545 613.001 73.3545 613.001C75.4201 613.333 78.6944 613.846 84.0494 614.437C84.1198 613.635 84.155 613.235 84.155 613.235C77.0007 612.327 73.6937 611.909 73.6937 611.909V611.907Z" fill="#E8E8E8"/>
<path fill-rule="evenodd" clip-rule="evenodd" d="M124.784 627.716C126.824 626.78 127.895 625.975 127.895 625.975C127.879 624.884 127.812 624.471 127.812 624.471C125.527 625.238 124.49 625.809 124.675 625.779C124.746 627.069 124.781 627.716 124.781 627.716H124.784Z" fill="#3D3A3A"/>
<path fill-rule="evenodd" clip-rule="evenodd" d="M135.194 621.011C135.144 622.121 135.122 622.621 135.122 622.621C135.122 622.621 134.536 622.958 133.368 623.524C133.368 623.524 133.347 623.072 133.305 622.164C133.305 622.164 133.935 621.779 135.194 621.011Z" fill="#3D3A3A"/>
<path fill-rule="evenodd" clip-rule="evenodd" d="M110.223 620.765C107.911 620.765 106.085 623.059 106.14 625.886C106.198 628.714 108.118 631.008 110.429 631.008C112.741 631.008 114.568 628.714 114.513 625.886C114.455 623.059 112.535 620.765 110.223 620.765Z" fill="#4A4441"/>
<path fill-rule="evenodd" clip-rule="evenodd" d="M110.256 622.45C108.703 622.45 107.477 623.989 107.515 625.888C107.552 627.787 108.841 629.327 110.394 629.327C111.947 629.327 113.174 627.787 113.136 625.888C113.098 623.989 111.809 622.45 110.256 622.45Z" fill="#96918E"/>
<path fill-rule="evenodd" clip-rule="evenodd" d="M110.266 622.962C109.796 622.959 109.387 623.118 109.032 623.387C108.354 623.9 107.914 624.826 107.934 625.887C107.967 627.502 109.065 628.812 110.384 628.812C111.704 628.812 112.721 627.497 112.716 625.887C112.716 624.891 112.309 624.038 111.671 623.51C111.276 623.183 110.789 622.967 110.266 622.962Z" fill="#A8A4A1"/>
<path fill-rule="evenodd" clip-rule="evenodd" d="M112.618 625.12C112.473 624.443 112.098 623.927 111.671 623.507C109.982 625.633 110.357 626.148 112.618 625.12Z" fill="#3D3633"/>
<path fill-rule="evenodd" clip-rule="evenodd" d="M112.603 626.865C112.458 627.541 112.028 628.137 111.588 628.409C109.897 626.284 110.339 625.836 112.603 626.865Z" fill="#3D3633"/>
<path fill-rule="evenodd" clip-rule="evenodd" d="M108.032 624.988C108.115 624.344 108.585 623.722 109.032 623.388C110.495 625.513 109.99 626.019 108.032 624.988Z" fill="#3D3633"/>
<path fill-rule="evenodd" clip-rule="evenodd" d="M108.082 626.76C108.208 627.437 108.592 627.852 109.017 628.295C110.479 626.169 110.042 625.729 108.082 626.76Z" fill="#3D3633"/>
<path fill-rule="evenodd" clip-rule="evenodd" d="M110.211 626.478C110.394 626.478 110.542 626.262 110.542 625.998C110.542 625.734 110.394 625.518 110.211 625.518C110.027 625.518 109.879 625.734 109.879 625.998C109.879 626.262 110.027 626.478 110.211 626.478Z" fill="#857F7B"/>
<path fill-rule="evenodd" clip-rule="evenodd" d="M69.2252 608.005C69.0242 609.937 68.8558 611.814 68.7227 613.635C69.2755 613.929 69.5167 613.949 69.4514 613.698C69.6323 610.923 69.7705 608.997 69.8434 608.146C69.5695 608.146 69.3986 608.121 69.2278 608.008L69.2252 608.005Z" fill="#9C1D1D"/>
<path fill-rule="evenodd" clip-rule="evenodd" d="M69.5723 611.838C69.5195 612.648 69.4918 613.053 69.4918 613.053C69.0194 612.897 68.7832 612.819 68.7832 612.819C68.846 612.052 68.8787 611.667 68.8787 611.667C69.3411 611.78 69.5723 611.838 69.5723 611.838Z" fill="#FAF1EB"/>
<path fill-rule="evenodd" clip-rule="evenodd" d="M69.1197 609.042C69.0644 609.61 68.9814 610.503 68.9814 610.503C69.1448 610.531 69.3684 610.576 69.6449 610.659C69.6449 610.659 69.7177 609.774 69.7604 609.2C69.5142 609.175 69.3006 609.12 69.1222 609.042H69.1197Z" fill="#D6712D"/>
<path fill-rule="evenodd" clip-rule="evenodd" d="M68.5119 619.837C71.1831 620.539 72.3265 620.635 72.3265 620.635C72.6431 618.977 72.8869 617.933 72.8869 617.933C69.0547 617.226 68.5119 616.625 68.5119 616.625C68.0747 616.605 68.1601 616.575 68.1777 617.649C67.9164 618.796 67.9767 619.47 68.5094 619.837H68.5119Z" fill="#544E4E"/>
<path fill-rule="evenodd" clip-rule="evenodd" d="M109.015 611.728C109.015 611.653 108.957 611.59 108.884 611.59C108.809 611.59 108.746 611.648 108.746 611.721L108.64 615.2C108.61 616.208 107.949 616.565 107.137 617.001C106.881 617.139 106.61 617.285 106.338 617.458C105.524 617.982 104.878 618.797 104.398 619.901C103.923 620.992 103.612 622.373 103.464 624.039C103.456 624.114 103.511 624.179 103.587 624.185C103.662 624.192 103.727 624.137 103.732 624.061C103.878 622.426 104.185 621.076 104.647 620.009C105.105 618.955 105.718 618.18 106.484 617.687C106.748 617.516 107.014 617.373 107.266 617.24C108.153 616.762 108.876 616.374 108.912 615.207L109.017 611.728H109.015Z" fill="#A1A1A1"/>
<path fill-rule="evenodd" clip-rule="evenodd" d="M125.957 621.814C124.856 621.253 124.231 619.771 123.826 619.55C124.502 619.497 125.532 621.203 125.957 621.814Z" fill="#E6E6E6"/>
<path fill-rule="evenodd" clip-rule="evenodd" d="M125.711 620.516C125.005 620.068 123.844 618.564 123.844 618.564C124.278 618.584 125.439 620.088 125.711 620.516Z" fill="#E6E6E6"/>
<path fill-rule="evenodd" clip-rule="evenodd" d="M125.955 622.72C125.249 622.36 124.027 620.725 124.027 620.725C124.462 620.693 125.681 622.328 125.955 622.72Z" fill="#E6E6E6"/>
<path fill-rule="evenodd" clip-rule="evenodd" d="M133.174 618.508C133.631 618.045 133.691 616.782 133.857 616.596C133.508 616.541 133.282 617.987 133.174 618.508Z" fill="#E6E6E6"/>
<path fill-rule="evenodd" clip-rule="evenodd" d="M133.076 617.395C133.355 617.023 133.682 615.75 133.682 615.75C133.468 615.76 133.142 617.033 133.076 617.395Z" fill="#E6E6E6"/>
<path fill-rule="evenodd" clip-rule="evenodd" d="M133.332 619.286C133.626 618.989 133.96 617.603 133.96 617.603C133.737 617.568 133.402 618.951 133.332 619.286Z" fill="#E6E6E6"/>
<path fill-rule="evenodd" clip-rule="evenodd" d="M122.841 618.062C122.6 618.062 122.479 618.064 122.479 618.064C123.367 619.402 123.919 621.261 124.138 623.643C124.228 621.256 123.799 619.397 122.844 618.062H122.841Z" fill="#FFB291"/>
</g>
<g clip-path="url(#clip3_221_16019)">
<path d="M158.594 603.324L142 604.844L143.183 612.314L154.935 612.402L158.594 603.324Z" stroke="#1D1D1B" stroke-width="0.105263" stroke-miterlimit="10"/>
<path d="M145.436 617.888C146.064 617.888 146.573 617.379 146.573 616.752C146.573 616.124 146.064 615.615 145.436 615.615C144.808 615.615 144.299 616.124 144.299 616.752C144.299 617.379 144.808 617.888 145.436 617.888Z" fill="#1D1D1B"/>
<path d="M157.031 616.752C157.031 616.087 156.493 615.548 155.827 615.548C155.162 615.548 154.623 616.087 154.623 616.752C154.623 617.417 155.162 617.956 155.827 617.956C156.493 617.956 157.031 617.417 157.031 616.752Z" fill="#1D1D1B"/>
<path d="M142 604.844L143.183 612.314L154.935 612.402L158.594 603.328L142 604.844ZM152.968 606.082L153.204 604.874C153.267 604.549 153.608 604.259 153.962 604.225L154.446 604.175C154.8 604.137 155.023 604.381 154.943 604.714L154.644 605.956C154.564 606.288 154.232 606.575 153.903 606.596L153.457 606.625C153.128 606.646 152.909 606.402 152.973 606.078L152.968 606.082ZM153.385 606.945L153.827 606.92C154.156 606.899 154.354 607.156 154.274 607.488L153.975 608.731C153.895 609.063 153.587 609.337 153.284 609.341L152.876 609.349C152.577 609.354 152.383 609.097 152.446 608.773L152.682 607.564C152.745 607.24 153.061 606.966 153.385 606.945ZM150.964 606.229L151.12 605.067C151.162 604.756 151.486 604.474 151.84 604.44L152.324 604.389C152.678 604.352 152.922 604.583 152.859 604.903L152.636 606.103C152.577 606.423 152.261 606.701 151.933 606.722L151.486 606.752C151.158 606.773 150.922 606.537 150.964 606.229ZM151.44 607.063L151.882 607.038C152.206 607.017 152.425 607.261 152.366 607.585L152.143 608.785C152.084 609.105 151.794 609.371 151.491 609.375H151.082C150.783 609.387 150.573 609.139 150.615 608.827L150.771 607.665C150.813 607.354 151.112 607.088 151.436 607.067L151.44 607.063ZM148.968 605.265C148.989 604.966 149.293 604.697 149.651 604.659L150.135 604.608C150.488 604.571 150.749 604.794 150.712 605.101L150.573 606.255C150.535 606.562 150.236 606.832 149.907 606.853L149.461 606.882C149.133 606.903 148.88 606.68 148.901 606.381L148.977 605.265H148.968ZM145.36 605.097L145.844 605.046C146.198 605.008 146.493 605.211 146.497 605.497L146.514 606.562C146.518 606.848 146.257 607.093 145.924 607.114L145.478 607.143C145.149 607.164 144.863 606.958 144.842 606.684L144.758 605.657C144.737 605.383 145.006 605.131 145.36 605.097ZM142.859 606.832L142.699 605.851C142.657 605.589 142.909 605.345 143.263 605.312L143.747 605.261C144.101 605.223 144.413 605.417 144.438 605.691L144.535 606.709C144.56 606.983 144.312 607.219 143.983 607.24L143.537 607.269C143.208 607.291 142.905 607.097 142.863 606.832H142.859ZM143.217 609.021L143.057 608.04C143.015 607.779 143.242 607.547 143.571 607.531L144.013 607.505C144.341 607.484 144.623 607.691 144.648 607.964L144.745 608.983C144.771 609.257 144.547 609.48 144.248 609.484L143.84 609.493C143.541 609.497 143.263 609.286 143.217 609.025V609.021ZM144.514 611.728L144.147 611.712C143.878 611.699 143.621 611.476 143.579 611.215L143.419 610.234C143.377 609.973 143.583 609.754 143.878 609.754H144.282C144.581 609.745 144.842 609.964 144.867 610.238L144.964 611.257C144.989 611.531 144.792 611.741 144.518 611.728H144.514ZM144.939 607.947C144.918 607.674 145.162 607.434 145.491 607.417L145.933 607.392C146.261 607.371 146.526 607.585 146.531 607.872L146.547 608.937C146.552 609.223 146.312 609.455 146.013 609.459L145.604 609.467C145.305 609.472 145.044 609.253 145.019 608.979L144.935 607.952L144.939 607.947ZM146.109 611.796L145.743 611.779C145.474 611.766 145.234 611.535 145.213 611.261L145.128 610.234C145.107 609.96 145.331 609.733 145.625 609.733H146.029C146.328 609.724 146.573 609.956 146.577 610.238L146.594 611.303C146.598 611.589 146.383 611.808 146.109 611.796ZM148.244 611.354C148.227 611.648 147.996 611.88 147.722 611.867L147.356 611.851C147.086 611.838 146.863 611.598 146.863 611.312V610.242C146.859 609.956 147.099 609.72 147.394 609.72H147.798C148.097 609.712 148.324 609.952 148.307 610.246L148.248 611.354H148.244ZM148.379 608.882C148.362 609.177 148.105 609.421 147.806 609.425H147.398C147.099 609.438 146.855 609.206 146.851 608.92V607.851C146.846 607.564 147.107 607.316 147.436 607.299L147.878 607.274C148.202 607.253 148.455 607.48 148.438 607.775L148.379 608.882ZM147.886 606.987L147.44 607.017C147.112 607.038 146.842 606.823 146.842 606.537V605.467C146.838 605.181 147.124 604.92 147.478 604.882L147.962 604.832C148.316 604.794 148.594 605.008 148.577 605.303L148.518 606.411C148.501 606.705 148.223 606.962 147.891 606.987H147.886ZM150.076 610.251L149.937 611.404C149.899 611.712 149.651 611.952 149.377 611.939L149.011 611.922C148.741 611.909 148.535 611.657 148.556 611.362L148.632 610.246C148.653 609.947 148.909 609.703 149.204 609.699H149.608C149.907 609.691 150.114 609.939 150.076 610.251ZM149.638 609.4H149.229C148.931 609.413 148.703 609.173 148.72 608.874L148.796 607.758C148.817 607.459 149.099 607.202 149.423 607.181L149.865 607.156C150.189 607.135 150.425 607.371 150.387 607.678L150.248 608.832C150.211 609.139 149.937 609.396 149.638 609.4ZM151.869 610.255L151.646 611.455C151.587 611.775 151.318 612.027 151.048 612.015L150.682 611.998C150.413 611.985 150.223 611.724 150.265 611.413L150.421 610.251C150.463 609.939 150.737 609.686 151.036 609.682H151.44C151.739 609.674 151.928 609.935 151.869 610.255ZM153.6 610.263L153.301 611.505C153.221 611.838 152.935 612.099 152.665 612.086L152.299 612.069C152.029 612.057 151.861 611.787 151.92 611.463L152.156 610.255C152.219 609.931 152.509 609.669 152.808 609.665H153.213C153.512 609.657 153.684 609.926 153.604 610.259L153.6 610.263ZM155.415 610.267L155.032 611.556C154.931 611.901 154.627 612.171 154.354 612.158L153.987 612.141C153.718 612.128 153.566 611.846 153.651 611.514L153.966 610.259C154.051 609.922 154.362 609.648 154.657 609.648H155.061C155.36 609.64 155.516 609.918 155.415 610.263V610.267ZM156.269 607.392L155.886 608.68C155.785 609.025 155.457 609.307 155.158 609.312L154.749 609.32C154.451 609.324 154.274 609.059 154.358 608.722L154.674 607.467C154.758 607.131 155.091 606.844 155.419 606.827L155.861 606.802C156.185 606.781 156.371 607.046 156.265 607.392H156.269ZM156.737 605.804C156.636 606.149 156.286 606.444 155.954 606.465L155.507 606.495C155.179 606.516 154.981 606.263 155.065 605.926L155.381 604.672C155.465 604.335 155.823 604.036 156.177 603.998L156.661 603.947C157.015 603.909 157.221 604.162 157.12 604.507L156.737 605.796V605.804Z" fill="white"/>
<path d="M158.333 603.864L157.912 603.771C157.921 603.733 158.114 602.874 159.019 601.99C159.676 601.35 160.733 601.017 160.779 601L160.91 601.413C160.91 601.413 159.904 601.733 159.323 602.297C158.514 603.085 158.337 603.855 158.333 603.859V603.864Z" fill="white"/>
<path d="M157.76 615.762H142.805V615.328H157.327V612.966L154.88 612.297L154.994 611.88L157.76 612.638V615.762Z" fill="white"/>
<path d="M164.169 601.164C164.169 601.446 163.937 601.678 163.655 601.678H160.914C160.632 601.678 160.4 601.446 160.4 601.164C160.4 600.882 160.632 600.651 160.914 600.651H163.655C163.937 600.651 164.169 600.882 164.169 601.164Z" fill="#1D1D1B"/>
</g>
<g clip-path="url(#clip4_221_16019)">
<path d="M58.8043 607.101L57.2508 605.475C56.7833 604.993 56.1926 604.38 56.2429 602.614V595.405H55.9814V602.915C55.9814 604.609 56.3937 605.183 57.1101 605.916C58.1557 606.989 58.4247 607.4 58.8822 607.874V607.293L58.8043 607.101Z" fill="#5A3D42"/>
<path d="M58.3794 597.987L59.5759 598.017L60.3123 621.651H57.6328L58.3794 597.987Z" fill="#5A3D42"/>
<path d="M59.9176 609.042C60.448 608.496 60.7471 607.75 60.7471 606.979V597.815H61.1518V607.211C61.1518 608.426 60.6793 609.598 59.8447 610.461L59.9176 609.042Z" fill="#5A3D42"/>
<path d="M61.1696 603.469L62.2831 602.305C62.6174 601.96 63.0397 601.521 63.0045 600.254V595.093H63.1905V600.471C63.1905 601.683 62.8939 602.095 62.3836 602.619C61.6346 603.387 61.4435 603.684 61.1143 604.023V603.607L61.1696 603.467V603.469Z" fill="#D79774"/>
<path d="M72.6643 593.903C72.6643 592.394 71.6086 591.142 70.2135 590.882C70.0979 588.134 67.901 585.936 65.1988 585.936C64.8167 585.936 64.4472 585.983 64.0903 586.068C63.6856 584.552 62.3433 583.437 60.7421 583.437C59.9428 583.437 59.2063 583.716 58.6206 584.185C57.8213 583.247 56.6474 582.653 55.3403 582.653C52.9674 582.653 51.042 584.599 50.9716 587.021C50.9088 587.019 50.8459 587.011 50.7806 587.011C48.5812 587.011 46.799 588.845 46.799 591.107C46.799 591.204 46.8065 591.299 46.8141 591.394C45.7056 591.958 44.9414 593.13 44.9414 594.484C44.9414 596.021 45.9217 597.326 47.2741 597.77C47.2715 597.847 47.2615 597.919 47.2615 597.997C47.2615 601.504 50.0215 604.347 53.43 604.347C54.1463 604.347 54.8301 604.213 55.471 603.983C56.3709 605.145 57.7459 605.889 59.2892 605.889C61.2524 605.889 62.9416 604.682 63.7233 602.943C64.2461 603.132 64.8092 603.242 65.3974 603.242C68.1724 603.242 70.4221 600.925 70.4221 598.069C70.4221 597.672 70.3744 597.283 70.2914 596.911C71.6463 596.62 72.6643 595.385 72.6643 593.903Z" fill="#73AD9A"/>
<path d="M53.0327 591.145C53.0302 591.082 53.0277 591.023 53.0277 590.963C53.0277 589.219 54.4027 587.8 56.0994 587.8C57.3587 587.8 58.4396 588.578 58.9147 589.695C59.3118 589.351 60.0382 588.837 60.5058 588.738C64.6834 587.85 64.696 592.776 64.8242 592.659C65.0152 592.487 65.5909 589.77 63.7534 588.259C61.1015 586.076 59.2062 587.563 58.7814 587.712C58.3064 586.597 56.9892 585.6 55.7324 585.6C54.0357 585.6 52.7286 586.732 52.7286 588.476C52.7286 588.538 52.613 589.498 52.618 589.558C51.6905 589.763 49.9561 590.813 49.9561 592.674C49.9561 593.295 50.0893 593.886 50.3205 594.417C50.5819 592.888 51.6377 591.641 53.0353 591.145H53.0327Z" fill="#9AB7A3"/>
<path d="M60.1818 592.993C61.3507 593.412 62.1098 594.497 62.2003 595.692C62.7608 595.425 63.8442 595.812 64.2841 595.969C66.192 596.652 66.8053 598.563 66.2297 600.581C66.5765 600.222 66.8556 599.78 67.029 599.269C67.6549 597.423 66.7072 595.4 64.9125 594.756C64.543 594.624 64.166 594.562 63.7939 594.559C63.7185 593.559 63.0801 592.649 62.0998 592.297C61.1848 591.968 60.2095 592.212 59.5459 592.843C59.7545 592.868 59.9682 592.916 60.1793 592.993H60.1818Z" fill="#9AB7A3"/>
</g>
<path d="M264.392 581.172H272.146V579.291H321.815V581.172H329.865V595.254H321.815V590.956H272.146V595.254H264.392V581.172Z" fill="#B4A4A7"/>
<rect x="254.232" y="581.939" width="10.1596" height="32.3455" fill="#FFFDFB"/>
<path d="M254.608 602.997V614.097L244.072 619.553V607.7L254.608 602.997Z" fill="#FFFDFB"/>
<path d="M339.272 602.997V614.097L349.808 619.553V607.7L339.272 602.997Z" fill="#FFFDFB"/>
<rect x="329.112" y="581.939" width="10.5359" height="32.3455" fill="#FFFDFB"/>
<path d="M273.085 581.94H254.242L251.975 581.187H271.498V578.553H322.691V581.187H340.401L338.587 581.94H321.331V580.058H273.085V581.94Z" fill="white"/>
<rect x="286.969" y="597.164" width="5.26794" height="0.376281" fill="#FFFDFB"/>
<rect x="270.036" y="596.976" width="4.89166" height="0.376281" fill="#FFFDFB"/>
<rect x="318.199" y="597.164" width="4.89166" height="0.376281" fill="#FFFDFB"/>
<rect x="298.257" y="597.164" width="5.26794" height="0.376281" fill="#FFFDFB"/>
<path d="M302.773 594.154H287.722L288.91 597.164H301.387L302.773 594.154Z" fill="#C8B7A6"/>
<rect x="290.731" y="594.154" width="9.03075" height="3.01025" fill="#FFFDFB"/>
<rect x="287.722" y="593.401" width="15.0512" height="0.752562" fill="#FFFDFB"/>
<rect x="264.392" y="600.526" width="6.0205" height="13.7587" fill="#839BB7"/>
<rect x="322.716" y="600.526" width="6.39678" height="13.7587" fill="#839BB7"/>
<rect x="303.148" y="600.526" width="15.4275" height="13.7587" fill="#839BB7"/>
<rect x="274.551" y="600.526" width="13.1698" height="13.7587" fill="#839BB7"/>
<circle cx="281.136" cy="607.414" r="3.33217" fill="#6D8095"/>
<rect x="280.966" y="604.065" width="0.33935" height="6.68185" fill="#53657A"/>
<circle cx="310.862" cy="607.414" r="3.33217" fill="#6D8095"/>
<rect x="310.692" y="604.065" width="0.33935" height="6.68185" fill="#53657A"/>
<rect x="287.722" y="597.164" width="15.4275" height="17.1208" fill="#FFFDFB"/>
<rect x="291.483" y="597.541" width="7.52562" height="11.4766" fill="#839BB7"/>
<rect x="270.412" y="597.164" width="4.13909" height="17.1208" fill="#FFFDFB"/>
<rect x="318.576" y="597.352" width="4.13909" height="16.9327" fill="#FFFDFB"/>
<path d="M234.075 614.777L237.099 620.306C237.384 620.827 237.931 621.151 238.525 621.151H239.987C240.517 621.151 241.014 620.892 241.318 620.458L245.124 615.022C245.521 614.455 245.115 613.676 244.423 613.676C243.808 613.676 243.394 613.046 243.638 612.482L245.183 608.9C245.601 607.931 244.89 606.851 243.835 606.851C243.385 606.851 242.96 606.644 242.682 606.291L240.459 603.463C239.764 602.58 238.404 602.652 237.806 603.603L236.109 606.3C235.893 606.643 235.517 606.851 235.111 606.851C234.306 606.851 233.738 607.641 233.994 608.405L235.433 612.695C235.595 613.177 235.236 613.676 234.728 613.676C234.163 613.676 233.804 614.281 234.075 614.777Z" fill="#73AD9A"/>
<path d="M225.685 619.27L229.558 626.396C229.842 626.919 230.39 627.245 230.986 627.245H233.233C233.765 627.245 234.263 626.984 234.567 626.548L239.417 619.576C239.909 618.869 239.403 617.901 238.542 617.901C237.777 617.901 237.261 617.119 237.563 616.415L239.611 611.635C240.071 610.563 239.284 609.37 238.118 609.37H237.718C237.218 609.37 236.746 609.139 236.438 608.745L233.276 604.698C232.582 603.81 231.216 603.881 230.618 604.838L228.215 608.681C227.948 609.11 227.478 609.37 226.973 609.37C225.974 609.37 225.268 610.349 225.584 611.297L227.379 616.681C227.579 617.281 227.132 617.901 226.5 617.901C225.797 617.901 225.35 618.653 225.685 619.27Z" fill="#9AB7A3"/>
<path d="M242.422 616.079L244.447 619.883C244.729 620.414 245.281 620.745 245.882 620.745H246.368C246.906 620.745 247.408 620.479 247.711 620.035L250.286 616.256C250.564 615.848 250.272 615.294 249.778 615.294C249.338 615.294 249.04 614.846 249.21 614.441L250.333 611.768C250.622 611.079 250.116 610.318 249.369 610.318C249.043 610.318 248.736 610.166 248.538 609.908L247.39 608.407C246.696 607.501 245.309 607.573 244.714 608.546L243.874 609.917C243.722 610.166 243.451 610.318 243.159 610.318C242.589 610.318 242.186 610.874 242.363 611.416L243.4 614.595C243.513 614.94 243.256 615.294 242.893 615.294C242.49 615.294 242.232 615.723 242.422 616.079Z" fill="#9AB7A3"/>
<g clip-path="url(#clip5_221_16019)">
<path d="M174.121 601.825L160.042 603.091L161.046 609.316L171.016 609.39L174.121 601.825Z" stroke="#1D1D1B" stroke-width="0.0924427" stroke-miterlimit="10"/>
<path d="M162.958 613.961C163.49 613.961 163.922 613.537 163.922 613.014C163.922 612.491 163.49 612.067 162.958 612.067C162.425 612.067 161.993 612.491 161.993 613.014C161.993 613.537 162.425 613.961 162.958 613.961Z" fill="#1D1D1B"/>
<path d="M172.795 613.014C172.795 612.46 172.338 612.011 171.774 612.011C171.209 612.011 170.752 612.46 170.752 613.014C170.752 613.569 171.209 614.018 171.774 614.018C172.338 614.018 172.795 613.569 172.795 613.014Z" fill="#1D1D1B"/>
<path d="M160.042 603.091L161.046 609.316L171.016 609.39L174.121 601.828L160.042 603.091ZM169.348 604.123L169.548 603.116C169.602 602.846 169.891 602.604 170.191 602.576L170.602 602.534C170.902 602.502 171.091 602.705 171.023 602.983L170.77 604.018C170.702 604.295 170.42 604.534 170.141 604.551L169.762 604.576C169.484 604.593 169.298 604.39 169.351 604.119L169.348 604.123ZM169.702 604.842L170.077 604.821C170.355 604.804 170.523 605.018 170.455 605.295L170.202 606.33C170.134 606.607 169.873 606.835 169.616 606.839L169.269 606.846C169.016 606.849 168.851 606.635 168.905 606.365L169.105 605.358C169.159 605.088 169.426 604.86 169.702 604.842ZM167.647 604.246L167.78 603.277C167.815 603.018 168.09 602.783 168.391 602.755L168.801 602.712C169.101 602.681 169.309 602.874 169.255 603.141L169.066 604.141C169.016 604.407 168.748 604.639 168.469 604.656L168.09 604.681C167.812 604.698 167.612 604.502 167.647 604.246ZM168.051 604.941L168.426 604.919C168.701 604.902 168.887 605.105 168.837 605.376L168.648 606.376C168.598 606.642 168.351 606.863 168.094 606.867H167.747C167.494 606.877 167.315 606.67 167.351 606.411L167.483 605.442C167.519 605.183 167.773 604.962 168.048 604.944L168.051 604.941ZM165.954 603.442C165.972 603.193 166.229 602.969 166.533 602.937L166.944 602.895C167.244 602.863 167.465 603.049 167.433 603.305L167.315 604.267C167.283 604.523 167.029 604.748 166.751 604.765L166.372 604.79C166.094 604.807 165.879 604.621 165.897 604.372L165.961 603.442H165.954ZM162.893 603.302L163.304 603.26C163.604 603.228 163.854 603.397 163.857 603.635L163.872 604.523C163.875 604.762 163.654 604.965 163.371 604.983L162.993 605.007C162.714 605.025 162.471 604.853 162.453 604.625L162.382 603.769C162.364 603.541 162.593 603.33 162.893 603.302ZM160.771 604.748L160.635 603.93C160.599 603.712 160.814 603.509 161.114 603.481L161.525 603.439C161.825 603.407 162.089 603.569 162.11 603.797L162.193 604.646C162.214 604.874 162.003 605.07 161.725 605.088L161.346 605.112C161.067 605.13 160.81 604.969 160.774 604.748H160.771ZM161.074 606.572L160.939 605.755C160.903 605.537 161.096 605.344 161.374 605.33L161.75 605.309C162.028 605.291 162.268 605.463 162.289 605.691L162.371 606.541C162.393 606.769 162.203 606.955 161.95 606.958L161.603 606.965C161.349 606.969 161.114 606.793 161.074 606.576V606.572ZM162.175 608.828L161.864 608.814C161.635 608.804 161.417 608.618 161.382 608.4L161.246 607.583C161.21 607.365 161.385 607.183 161.635 607.183H161.978C162.232 607.176 162.453 607.358 162.475 607.586L162.557 608.435C162.578 608.663 162.41 608.839 162.178 608.828H162.175ZM162.535 605.677C162.518 605.449 162.725 605.249 163.003 605.235L163.379 605.214C163.657 605.197 163.882 605.376 163.886 605.614L163.9 606.502C163.904 606.741 163.7 606.934 163.446 606.937L163.1 606.944C162.846 606.948 162.625 606.765 162.603 606.537L162.532 605.681L162.535 605.677ZM163.529 608.884L163.218 608.87C162.989 608.86 162.786 608.667 162.768 608.439L162.696 607.583C162.678 607.355 162.868 607.165 163.118 607.165H163.461C163.714 607.158 163.922 607.351 163.925 607.586L163.939 608.474C163.943 608.712 163.761 608.895 163.529 608.884ZM165.34 608.516C165.325 608.762 165.129 608.955 164.897 608.944L164.586 608.93C164.357 608.919 164.168 608.719 164.168 608.481V607.59C164.164 607.351 164.368 607.155 164.618 607.155H164.961C165.215 607.148 165.408 607.348 165.393 607.593L165.343 608.516H165.34ZM165.454 606.456C165.44 606.702 165.222 606.905 164.968 606.909H164.622C164.368 606.919 164.161 606.726 164.157 606.488V605.597C164.154 605.358 164.375 605.151 164.654 605.137L165.029 605.116C165.304 605.098 165.518 605.288 165.504 605.534L165.454 606.456ZM165.036 604.877L164.657 604.902C164.379 604.919 164.15 604.741 164.15 604.502V603.611C164.147 603.372 164.39 603.155 164.69 603.123L165.1 603.081C165.4 603.049 165.636 603.228 165.622 603.474L165.572 604.397C165.558 604.642 165.322 604.856 165.04 604.877H165.036ZM166.894 607.597L166.776 608.558C166.744 608.814 166.533 609.014 166.301 609.004L165.99 608.99C165.761 608.979 165.586 608.769 165.604 608.523L165.668 607.593C165.686 607.344 165.904 607.141 166.154 607.137H166.497C166.751 607.13 166.926 607.337 166.894 607.597ZM166.522 606.888H166.176C165.922 606.898 165.729 606.698 165.743 606.449L165.808 605.519C165.826 605.27 166.065 605.056 166.34 605.039L166.715 605.018C166.99 605 167.19 605.197 167.158 605.453L167.04 606.414C167.008 606.67 166.776 606.884 166.522 606.888ZM168.416 607.6L168.226 608.6C168.176 608.867 167.948 609.077 167.719 609.067L167.408 609.053C167.179 609.042 167.019 608.825 167.054 608.565L167.187 607.597C167.222 607.337 167.455 607.126 167.708 607.123H168.051C168.305 607.116 168.466 607.334 168.416 607.6ZM169.884 607.607L169.63 608.642C169.562 608.919 169.319 609.137 169.091 609.126L168.78 609.112C168.551 609.102 168.408 608.877 168.458 608.607L168.658 607.6C168.712 607.33 168.959 607.112 169.212 607.109H169.555C169.809 607.102 169.955 607.326 169.887 607.604L169.884 607.607ZM171.423 607.611L171.098 608.684C171.013 608.972 170.755 609.197 170.523 609.186L170.212 609.172C169.984 609.162 169.855 608.926 169.927 608.649L170.195 607.604C170.266 607.323 170.53 607.095 170.78 607.095H171.123C171.377 607.088 171.509 607.319 171.423 607.607V607.611ZM172.149 605.214L171.824 606.288C171.738 606.576 171.459 606.811 171.206 606.814L170.859 606.821C170.605 606.825 170.455 606.604 170.527 606.323L170.795 605.277C170.866 604.997 171.148 604.758 171.427 604.744L171.802 604.723C172.077 604.705 172.234 604.926 172.145 605.214H172.149ZM172.545 603.891C172.459 604.179 172.163 604.425 171.881 604.442L171.502 604.467C171.223 604.484 171.055 604.274 171.127 603.993L171.395 602.948C171.466 602.667 171.77 602.418 172.07 602.386L172.481 602.344C172.781 602.312 172.956 602.523 172.87 602.811L172.545 603.884V603.891Z" fill="white"/>
<path d="M173.899 602.273L173.542 602.195C173.549 602.164 173.713 601.448 174.482 600.711C175.039 600.178 175.935 599.901 175.975 599.887L176.085 600.23C176.085 600.23 175.232 600.497 174.739 600.967C174.053 601.623 173.903 602.266 173.899 602.269V602.273Z" fill="white"/>
<path d="M173.414 612.189H160.725V611.828H173.046V609.86L170.97 609.302L171.066 608.954L173.414 609.586V612.189Z" fill="white"/>
<path d="M178.851 600.025C178.851 600.26 178.654 600.453 178.415 600.453H176.089C175.85 600.453 175.653 600.26 175.653 600.025C175.653 599.79 175.85 599.597 176.089 599.597H178.415C178.654 599.597 178.851 599.79 178.851 600.025Z" fill="#1D1D1B"/>
</g>
<rect x="379.844" y="579.651" width="31.0488" height="45.878" fill="#5875B8"/>
<path d="M358.527 597.261H379.844V606.53H366.405L358.527 597.261Z" fill="#5A3A40"/>
<path d="M349.259 606.53L358.527 597.261L366.405 606.53H349.259Z" fill="#D79774"/>
<rect x="366.405" y="606.53" width="13.439" height="19" fill="#839BB7"/>
<rect x="349.259" y="606.53" width="17.1463" height="19" fill="#D46436"/>
<path d="M345.401 620.983L347.576 625.018C347.899 625.618 348.526 625.993 349.208 625.993H349.656C350.265 625.993 350.835 625.693 351.181 625.191L353.953 621.174C354.258 620.733 353.941 620.13 353.405 620.13C352.928 620.13 352.605 619.643 352.792 619.204L354.001 616.359C354.32 615.609 353.77 614.778 352.955 614.778C352.604 614.778 352.272 614.615 352.057 614.337L350.873 612.81C350.082 611.788 348.513 611.87 347.832 612.968L346.978 614.346C346.812 614.615 346.519 614.778 346.203 614.778C345.582 614.778 345.142 615.386 345.337 615.976L346.46 619.37C346.583 619.745 346.305 620.13 345.91 620.13C345.473 620.13 345.193 620.598 345.401 620.983Z" fill="#9AB7A3"/>
<path fill-rule="evenodd" clip-rule="evenodd" d="M293.5 59C319.744 59 341 80.4072 341 106.839C341 133.271 319.744 154.724 293.5 154.724C267.256 154.724 246 133.271 246 106.839C246 80.4072 267.256 59 293.5 59Z" fill="#FBE27E"/>
<path fill-rule="evenodd" clip-rule="evenodd" d="M289.767 60.9738C312.887 60.9738 331.629 79.8455 331.629 103.134C331.629 126.422 312.891 145.29 289.767 145.29C266.648 145.29 247.906 126.418 247.906 103.13C247.906 79.8419 266.648 60.9738 289.767 60.9738Z" fill="#FCEF89"/>
<path fill-rule="evenodd" clip-rule="evenodd" d="M284.736 66.3235C303.616 66.3235 318.857 81.6761 318.857 100.641C318.857 119.609 303.613 135.008 284.736 135.008C265.902 135.008 250.662 119.609 250.662 100.641C250.659 81.6761 265.902 66.3235 284.736 66.3235Z" fill="#FAF396"/>
<path fill-rule="evenodd" clip-rule="evenodd" d="M-25.5856 86.4417C-22.6699 84.2711 -18.8978 83.5611 -15.375 84.5556C-15.8032 82.3851 -14.8764 80.1793 -13.0988 78.865C-11.3211 77.5833 -8.93648 77.4424 -6.97998 78.51C-7.19406 77.2662 -6.625 76.0549 -5.55733 75.4154C-4.48966 74.7759 -3.10223 74.8464 -2.14295 75.6295C-3.88537 72.2503 -2.60633 68.0881 0.737593 66.2372C4.04629 64.3864 8.24381 65.5246 10.2003 68.798C9.80738 66.5922 11.0187 64.3864 13.1161 63.5681C15.1782 62.7145 17.5981 63.3892 18.8799 65.24C18.9856 60.6496 21.2645 56.3464 24.9634 53.6772C28.6976 50.9728 33.5021 50.1544 37.911 51.4714C39.4772 48.9459 42.5014 47.7373 45.4172 48.4473C48.2977 49.1599 50.3978 51.6503 50.6471 54.6365C54.4192 52.5743 59.0774 53.1054 62.3509 55.9182C65.5891 58.7635 66.7272 63.3188 65.1962 67.3374C66.4048 66.3782 68.1119 66.3402 69.3585 67.267C70.6023 68.191 71.0657 69.863 70.4614 71.2856C72.9165 67.4079 77.824 65.8795 82.0946 67.6572C86.3274 69.4348 88.6768 74.0253 87.6444 78.5073C89.2106 76.8354 91.663 76.3368 93.7631 77.2256C95.8633 78.1496 97.1423 80.285 96.9634 82.5612C103.367 78.7539 111.512 79.5371 117.062 84.5529C118.983 82.1683 122.292 81.5288 124.994 82.9514C127.698 84.4093 128.977 87.5392 128.088 90.4576C131.397 87.7532 135.738 86.6503 139.936 87.4687C144.169 88.2871 147.797 90.9183 149.862 94.6552C152.602 91.7746 156.834 90.8831 160.498 92.4846C168.218 95.8638 168.004 105.186 158.647 106.82C155.553 107.389 152.35 106.57 149.859 104.614C149.61 106.998 148.044 108.99 145.841 109.844C143.6 110.662 141.109 110.163 139.367 108.562C138.584 114.431 134.28 119.198 128.517 120.585C122.788 121.973 116.778 119.697 113.363 114.86C112.545 117.315 110.448 119.163 107.884 119.626C105.323 120.125 102.725 119.198 101.017 117.242C92.6928 125.138 79.8157 125.672 70.8516 118.523C68.7162 120.515 65.6216 121.049 62.9904 119.911C60.3212 118.773 58.5436 116.177 58.5083 113.293C55.3785 117.67 49.9344 119.732 44.7072 118.523C39.4772 117.315 35.4938 113.079 34.605 107.779C32.5076 110.944 28.806 112.651 25.0366 112.226C21.2672 111.762 18.0642 109.237 16.7825 105.679C13.1892 110.09 7.42544 112.082 1.87572 110.8C-3.674 109.519 -7.9772 105.18 -9.22371 99.6304C-12.2479 102.655 -16.5511 104.007 -20.7486 103.224C-29.8915 101.525 -33.6257 92.49 -25.5856 86.4417Z" fill="#FFFEEA"/>
<path fill-rule="evenodd" clip-rule="evenodd" d="M-25.5853 86.4419C-22.6695 84.2713 -18.8975 83.5614 -15.3747 84.5559C-15.8028 82.3853 -14.8761 80.1795 -13.0984 78.8652C-11.3208 77.5835 -8.93614 77.4426 -6.97965 78.5103C-7.19372 77.2665 -6.62466 76.0552 -5.55699 75.4156C-4.48932 74.7761 -3.10189 74.8466 -2.14261 75.6297C-3.88503 72.2506 -2.60599 68.0883 0.73793 66.2375C4.04663 64.3867 8.24415 65.5248 10.2006 68.7983C9.80772 66.5925 11.019 64.3867 13.1164 63.5683C15.1786 62.7147 17.5985 63.3894 18.8802 65.2403C18.9859 60.6498 21.2648 56.3466 24.9638 53.6774C28.6979 50.973 33.5024 50.1547 37.9113 51.4716C39.4776 48.9461 42.5017 47.7375 45.4175 48.4475C48.298 49.1602 50.3982 51.6505 50.6475 54.6367C54.4195 52.5745 59.0777 53.1057 62.3512 55.9185C65.5894 58.7638 66.7276 63.319 65.1965 67.3377C66.4051 66.3784 68.1123 66.3404 69.3588 67.2672C70.6026 68.1912 71.066 69.8632 70.4617 71.2859C72.9168 67.4081 77.8243 65.8798 82.095 67.6574C86.3277 69.4351 88.6771 74.0255 87.6447 78.5076C89.211 76.8356 91.6634 76.337 93.7635 77.2258C95.8636 78.1499 97.1426 80.2852 96.9638 82.5614C103.367 78.7541 111.513 79.5373 117.063 84.5532C118.984 82.1685 122.292 81.529 124.994 82.9517C127.699 84.4095 128.978 87.5394 128.089 90.4579C131.398 87.7535 135.739 86.6506 139.936 87.4689C144.169 88.2873 147.797 90.9185 149.862 94.6554C152.602 91.7749 156.835 90.8833 160.498 92.4848C163.842 93.9427 165.693 96.5414 165.978 99.1374C164.52 96.2569 161.674 94.3709 158.471 94.1216C155.233 93.9075 152.139 95.4033 150.326 98.0698C149.366 96.0781 147.656 94.5822 145.559 93.9075C143.462 93.23 141.183 93.4441 139.261 94.4765C137.695 92.2003 134.993 90.9538 132.219 91.2383C129.444 91.5228 127.059 93.3005 125.994 95.864C124.856 92.2355 122.081 89.317 118.523 87.9675C114.93 86.5801 110.946 86.9351 107.673 88.8916C106.391 86.4365 103.725 85.0491 100.985 85.442C98.2455 85.8322 96.0397 87.8971 95.5059 90.6015C95.5059 87.3633 93.7987 84.3391 90.9886 82.7051C88.2138 81.0683 84.7642 81.0331 81.9541 82.5994C81.7048 79.8245 79.358 77.7244 76.548 77.7976C73.7731 77.8328 71.5321 80.0386 71.3885 82.8135C71.3532 79.1498 69.077 75.8763 65.6626 74.5593C62.2835 73.2424 58.4057 74.1339 55.9154 76.8356C56.021 69.1858 49.9754 62.9261 42.3608 62.712C34.7489 62.4627 28.3456 68.4026 27.9879 76.0172C26.4596 72.6381 22.7227 70.8225 19.0943 71.714C15.4658 72.5676 12.9755 75.9115 13.1544 79.6104C9.63158 76.906 5.04384 76.0524 0.811098 77.3342C-3.45687 78.578 -6.83603 81.8162 -8.29662 86.0138C-12.2096 84.9461 -16.4424 86.2631 -19.0411 89.3929C-23.5584 88.0055 -28.3249 90.3522 -29.9617 94.799C-30.211 91.9916 -28.894 88.9675 -25.5853 86.4419Z" fill="white"/>
<path fill-rule="evenodd" clip-rule="evenodd" d="M165.551 102.057C164.663 104.298 162.386 106.184 158.65 106.824C155.555 107.393 152.352 106.575 149.862 104.618C149.612 107.003 148.046 108.995 145.843 109.848C143.602 110.667 141.112 110.168 139.369 108.566C138.586 114.436 134.283 119.202 128.519 120.59C122.791 121.977 116.78 119.701 113.366 114.864C112.547 117.319 110.45 119.167 107.886 119.631C105.326 120.129 102.727 119.202 101.02 117.246C92.6952 125.142 79.8181 125.676 70.854 118.528C68.7187 120.519 65.6241 121.053 62.9928 119.915C60.3236 118.777 58.546 116.181 58.5108 113.298C55.3809 117.674 49.9369 119.736 44.7096 118.528C39.4797 117.319 35.4962 113.084 34.6074 107.783C32.51 110.948 28.8084 112.656 25.039 112.23C21.2697 111.767 18.0667 109.241 16.7849 105.683C13.1917 110.095 7.42789 112.086 1.87817 110.805C-3.67155 109.523 -7.97475 105.185 -9.22127 99.6348C-12.2454 102.659 -16.5486 104.011 -20.7461 103.228C-25.2987 102.374 -28.5017 99.7053 -29.5693 96.505C-26.9002 98.9601 -23.3096 100.169 -19.6812 99.8489C-16.0527 99.5291 -12.744 97.6783 -10.5382 94.7978C-6.37595 99.6348 0.737331 100.702 6.14614 97.2881C8.42239 99.6727 11.5875 101.06 14.8962 101.095C18.2049 101.131 21.4052 99.7784 23.7193 97.3965C29.8029 103.16 38.5177 105.258 46.5577 102.911C50.6848 106.539 56.0909 108.317 61.5349 107.821C67.0142 107.358 72.0301 104.691 75.4445 100.421C74.412 102.662 71.9949 104.903 68.2932 107.144C71.5315 111.306 76.5121 113.691 81.7394 113.653C87.0046 113.617 91.95 111.162 95.1503 106.965C96.8223 109.74 99.6676 111.555 102.906 111.91C106.106 112.265 109.274 111.092 111.515 108.745C115.322 111.983 120.623 112.837 125.246 110.951C129.871 109.03 133.072 104.689 133.464 99.7107C133.714 102.093 132.755 104.762 130.549 107.751C134.462 109.138 138.803 107.466 140.83 103.838C142.112 105.046 143.924 105.545 145.632 105.084C147.339 104.656 148.691 103.377 149.225 101.705C151.252 104.052 154.205 105.439 157.3 105.512C160.427 105.58 163.416 104.336 165.551 102.057Z" fill="#F8F6D7"/>
<path fill-rule="evenodd" clip-rule="evenodd" d="M224.91 179.912C221.712 184.162 216.333 186.082 211.178 184.841C193.196 180.514 204.443 159.898 220.884 165.73C221.56 159.033 225.397 153.052 231.192 149.59C237.023 146.166 244.133 145.716 250.303 148.387C249.701 143.572 252.484 138.944 257.037 137.288C261.628 135.594 266.743 137.325 269.377 141.389C278.068 132.737 291.497 130.932 302.18 136.95C302.555 132.136 305.453 127.846 309.78 125.702C314.107 123.521 319.259 123.782 323.36 126.378C327.424 122.203 333.293 120.32 339.01 121.3C344.727 122.278 349.618 126.04 352.063 131.307C354.169 128.41 357.82 127.132 361.279 128.035C364.703 128.975 367.222 131.909 367.598 135.483C372.79 134.127 378.281 135.182 382.645 138.268C387.01 141.354 389.792 146.243 390.245 151.548C396.604 147.785 404.728 148.84 409.921 154.067C420.002 164.263 413.382 179.949 398.521 179.723C393.291 179.648 388.362 177.316 384.941 173.364C386.482 179.497 382.909 185.741 376.854 187.546C370.796 189.352 364.402 186.079 362.296 180.136C359.362 182.958 355.261 184.162 351.275 183.408C347.289 182.655 343.901 180.024 342.208 176.336C337.617 181.451 331.186 184.463 324.337 184.649C317.491 184.838 310.831 182.205 305.98 177.387C304.401 180.207 301.014 181.451 297.967 180.359C294.921 179.267 293.116 176.109 293.718 172.948C290.408 178.026 285.066 181.488 279.045 182.428C273.027 183.368 266.895 181.674 262.192 177.8C259.332 179.795 255.796 180.471 252.412 179.72C249.025 178.929 246.13 176.786 244.399 173.777C243.27 177.766 240.261 180.886 236.31 182.127C232.395 183.371 228.105 182.546 224.91 179.912Z" fill="#FFFEEA"/>
<path fill-rule="evenodd" clip-rule="evenodd" d="M202.073 174.871C202.787 168.438 210.877 162.194 220.884 165.73C221.56 159.033 225.397 153.052 231.191 149.59C237.023 146.166 244.133 145.716 250.303 148.387C249.701 143.572 252.483 138.944 257.037 137.288C261.628 135.594 266.743 137.325 269.376 141.389C278.068 132.737 291.497 130.932 302.18 136.95C302.555 132.136 305.452 127.846 309.78 125.702C314.107 123.521 319.259 123.782 323.36 126.378C327.424 122.203 333.292 120.32 339.009 121.3C344.726 122.278 349.618 126.04 352.063 131.307C354.169 128.41 357.82 127.132 361.279 128.035C364.703 128.975 367.222 131.909 367.597 135.483C372.79 134.127 378.281 135.182 382.645 138.268C387.009 141.354 389.792 146.243 390.245 151.548C396.604 147.785 404.728 148.84 409.92 154.067C414.586 158.806 415.675 164.675 414.021 169.604C414.474 165.429 412.405 161.403 408.754 159.296C405.106 157.19 400.59 157.454 397.168 159.898C391.488 153.502 382.611 150.983 374.409 153.502C373.168 146.278 368.351 140.148 361.62 137.288C354.848 134.428 347.099 135.182 341.041 139.32C338.671 134.468 333.593 131.608 328.212 132.058C322.833 132.548 318.316 136.233 316.812 141.426C313.915 138.603 309.665 137.701 305.865 139.093C302.065 140.486 299.394 143.948 299.019 147.971C295.784 143.945 290.743 141.764 285.55 142.102C280.358 142.478 275.695 145.338 272.984 149.777C269.374 146.73 264.445 145.676 259.931 146.994C255.378 148.309 251.767 151.846 250.337 156.362C245.296 154.218 239.576 154.293 234.613 156.588C229.61 158.884 225.847 163.171 224.193 168.401C216.181 165.842 207.415 168.361 202.073 174.871Z" fill="white"/>
<path fill-rule="evenodd" clip-rule="evenodd" d="M224.91 179.913C221.712 184.163 216.333 186.083 211.178 184.842C206.587 183.75 203.916 181.569 202.75 179.048C209.183 182.959 217.497 181.529 222.311 175.738C226.337 177.469 230.963 177.394 234.952 175.511C238.938 173.669 241.95 170.207 243.265 165.995C246.95 170.396 253.197 171.712 258.387 169.155C254.401 167.313 251.578 165.281 249.999 163.097C257.711 171.147 270.125 172.428 279.304 166.181C281.146 167.76 283.631 168.402 286.038 167.912C288.408 167.384 290.402 165.731 291.38 163.51C294.54 170.055 301.914 173.48 308.949 171.674C311.207 173.932 314.365 175.059 317.563 174.646C320.724 174.271 323.544 172.425 325.163 169.642C325.839 173.179 328.848 175.775 332.425 175.924C335.998 176.073 339.196 173.743 340.173 170.282C346.306 175.059 354.995 174.72 360.714 169.453C357.29 168.098 354.47 165.579 352.777 162.344C356.614 167.009 362.219 169.866 368.2 170.282C374.218 170.734 380.164 168.703 384.64 164.676C390.019 173.216 400.063 177.618 409.995 175.738C407.213 178.219 403.261 179.801 398.521 179.727C393.291 179.652 388.362 177.32 384.941 173.368C386.483 179.5 382.909 185.745 376.854 187.55C370.796 189.355 364.403 186.083 362.296 180.139C359.362 182.962 355.261 184.166 351.275 183.412C347.289 182.658 343.902 180.028 342.208 176.34C337.617 181.455 331.187 184.467 324.338 184.653C317.492 184.842 310.832 182.208 305.98 177.391C304.401 180.211 301.014 181.455 297.968 180.363C294.921 179.271 293.116 176.113 293.718 172.952C290.408 178.03 285.066 181.492 279.046 182.432C273.028 183.372 266.895 181.678 262.193 177.804C259.333 179.798 255.796 180.475 252.412 179.724C249.025 178.933 246.131 176.789 244.4 173.781C243.271 177.77 240.262 180.89 236.31 182.131C232.395 183.372 228.105 182.547 224.91 179.913Z" fill="#F8F6D7"/>
<path fill-rule="evenodd" clip-rule="evenodd" d="M-27.6924 170.085C-31.5995 173.947 -37.6417 174.446 -42.1405 171.31C-46.6393 168.22 -48.2277 162.316 -46.0026 157.364C-43.7324 152.367 -38.2335 149.73 -32.918 151.049C-34.4165 146.688 -32.5996 141.871 -28.6026 139.556C-24.6056 137.237 -19.515 138.102 -16.4731 141.556C-12.6561 133.469 -4.56866 128.291 4.33549 128.247C13.2846 128.202 21.4171 133.334 25.2791 141.376C28.1411 136.787 33.4566 134.334 38.8171 135.154C44.1326 135.971 48.4929 139.878 49.9014 145.103C54.8536 141.241 61.7125 141.106 66.848 144.695C73.9354 149.647 74.0704 161.05 71.3918 168.365C69.9834 172.137 67.2114 175.318 63.4878 177.225C57.4005 180.315 50.0398 179.225 45.0427 174.591C45.496 181.588 40.8623 187.901 34.0484 189.537C27.2344 191.219 20.237 187.721 17.4201 181.27C16.33 185.087 12.9213 187.766 8.92428 187.949C4.97226 188.129 1.33862 185.724 -0.114841 182.042C-4.93201 186.267 -11.791 187.357 -17.6948 184.814C-23.6055 182.263 -27.5125 176.491 -27.6924 170.085Z" fill="#F8F6D7"/>
<path fill-rule="evenodd" clip-rule="evenodd" d="M-46.8197 163.953C-47.1831 161.773 -46.9546 159.502 -46.003 157.367C-43.7328 152.37 -38.2339 149.733 -32.9184 151.052C-34.4169 146.691 -32.6 141.874 -28.603 139.559C-24.606 137.24 -19.5154 138.105 -16.4735 141.559C-12.6565 133.472 -4.56907 128.295 4.33509 128.25C13.2842 128.205 21.4167 133.337 25.2787 141.379C28.1407 136.79 33.4562 134.337 38.8167 135.157C44.1322 135.974 48.4925 139.881 49.901 145.106C54.8531 141.244 61.7121 141.109 66.8476 144.698C70.3913 147.197 72.2081 151.287 72.7999 155.692C70.6647 151.014 66.0309 147.968 60.8988 147.833C55.7633 147.743 50.9946 150.56 48.6344 155.149C47.136 150.515 43.3639 147.017 38.6852 145.747C34.0064 144.521 29.0093 145.702 25.3756 148.972C25.1922 146.155 22.9671 143.975 20.1501 143.746C17.3782 143.566 14.8346 145.473 14.2913 148.197C11.5644 141.971 5.34215 138.019 -1.42681 138.112C-8.19577 138.247 -14.238 142.473 -16.7365 148.788C-19.0067 146.29 -22.7338 145.788 -25.5507 147.608C-28.3677 149.425 -29.4578 153.014 -28.1393 156.104C-31.4995 153.741 -35.8633 153.287 -39.632 154.879C-43.4559 156.457 -46.1829 159.866 -46.8197 163.953Z" fill="white"/>
<path fill-rule="evenodd" clip-rule="evenodd" d="M-27.6931 170.086C-31.6002 173.948 -37.6424 174.446 -42.1412 171.311C-42.8229 170.857 -43.4147 170.311 -43.958 169.767C-40.5043 171.131 -36.6423 171.086 -33.282 169.539C-29.8733 168.04 -27.2848 165.178 -26.0147 161.68C-27.6516 168.947 -23.1528 176.173 -15.9305 177.9C-8.66322 179.627 -1.39248 175.266 0.469337 168.04C0.334373 171.401 -1.39249 174.491 -4.20943 176.353C5.78482 180.852 17.5959 178.305 24.7767 169.992C23.6416 172.581 21.5514 174.626 18.9144 175.671C22.6415 178.17 27.3202 178.941 31.6356 177.761C35.996 176.581 39.6331 173.581 41.5849 169.539C50.2606 176.761 62.9819 176.398 71.2493 168.722C69.7958 172.311 67.1138 175.356 63.4802 177.218C57.3929 180.308 50.0322 179.218 45.0351 174.584C45.4884 181.582 40.8547 187.894 34.0408 189.531C27.2268 191.213 20.2294 187.714 17.4125 181.263C16.3224 185.08 12.9137 187.759 8.91667 187.942C4.96465 188.122 1.33101 185.717 -0.122448 182.035C-4.93962 186.261 -11.7986 187.351 -17.7024 184.807C-23.6062 182.264 -27.5132 176.491 -27.6931 170.086Z" fill="#F3F2D8"/>
<rect width="1115.8" height="8" transform="translate(-9.43945 687.563)" fill="white"/>
<rect x="-9.43945" y="687.363" width="26.6" height="8.4" fill="#2D2D2C"/>
<rect x="43.7607" y="687.363" width="26.6" height="8.4" fill="#2D2D2C"/>
<rect x="96.9604" y="687.363" width="26.6" height="8.4" fill="#2D2D2C"/>
<rect x="150.161" y="687.363" width="26.6" height="8.4" fill="#2D2D2C"/>
<rect x="203.36" y="687.363" width="26.6" height="8.4" fill="#2D2D2C"/>
<rect x="256.561" y="687.363" width="26.6" height="8.4" fill="#2D2D2C"/>
<rect x="309.761" y="687.363" width="26.6" height="8.4" fill="#2D2D2C"/>
<rect x="362.96" y="687.363" width="26.6" height="8.4" fill="#2D2D2C"/>
<rect width="1115.8" height="8" transform="translate(-9.43945 637.251)" fill="white"/>
<rect x="-9.43945" y="637.051" width="26.6" height="8.4" fill="#2D2D2C"/>
<rect x="43.7607" y="637.051" width="26.6" height="8.4" fill="#2D2D2C"/>
<rect x="96.9604" y="637.051" width="26.6" height="8.4" fill="#2D2D2C"/>
<rect x="150.161" y="637.051" width="26.6" height="8.4" fill="#2D2D2C"/>
<rect x="203.36" y="637.051" width="26.6" height="8.4" fill="#2D2D2C"/>
<rect x="256.561" y="637.051" width="26.6" height="8.4" fill="#2D2D2C"/>
<rect x="309.761" y="637.051" width="26.6" height="8.4" fill="#2D2D2C"/>
<rect x="362.96" y="637.051" width="26.6" height="8.4" fill="#2D2D2C"/>
<g opacity="0.3">
<rect x="-10.1396" y="665.651" width="65.8368" height="2.8" fill="#D9D9D9"/>
<rect x="79.4971" y="665.651" width="65.8368" height="2.8" fill="#D9D9D9"/>
<rect x="169.134" y="665.651" width="65.8368" height="2.8" fill="#D9D9D9"/>
<rect x="258.771" y="665.651" width="65.8368" height="2.8" fill="#D9D9D9"/>
<rect x="348.408" y="665.651" width="65.8368" height="2.8" fill="#D9D9D9"/>
</g>
<rect x="-56.0586" y="485.651" width="84.7736" height="209.657" fill="#D46437"/>
<rect x="6.87891" y="550.287" width="43.6712" height="28.9001" fill="#D46437"/>
<rect x="6.87891" y="633.776" width="43.6712" height="28.9001" fill="#D46437"/>
<rect x="6.87891" y="579.829" width="21.8356" height="12.8445" fill="#B8603D"/>
<rect x="6.87891" y="663.318" width="21.8356" height="12.8445" fill="#B8603D"/>
<rect x="6.87891" y="550.287" width="8.34891" height="29.5423" fill="#5A3A40"/>
<rect x="6.87891" y="633.776" width="8.34891" height="29.5423" fill="#5A3A40"/>
<rect x="6.87891" y="540.654" width="21.8356" height="9.63336" fill="#E1B128"/>
<rect x="6.87891" y="624.143" width="21.8356" height="9.63336" fill="#E1B128"/>
<rect x="-41.9297" y="503.404" width="63.5802" height="25.0467" fill="#E1B128"/>
<rect x="-41.9297" y="592.674" width="63.5802" height="25.0467" fill="#E1B128"/>
<rect x="-41.9297" y="676.162" width="63.5802" height="25.0467" fill="#E1B128"/>
</g>
<defs>
<clipPath id="clip0_221_16019">
<rect width="393" height="697" fill="white"/>
</clipPath>
<clipPath id="clip1_221_16019">
<rect width="59.436" height="20" fill="white" transform="matrix(-1 0 0 1 3.43604 446.651)"/>
</clipPath>
<clipPath id="clip2_221_16019">
<rect width="69.2658" height="38" fill="white" transform="translate(65.9414 595.651)"/>
</clipPath>
<clipPath id="clip3_221_16019">
<rect width="22.2274" height="17.3053" fill="white" transform="translate(141.941 600.651)"/>
</clipPath>
<clipPath id="clip4_221_16019">
<rect width="27.7229" height="39" fill="white" transform="translate(44.9414 582.651)"/>
</clipPath>
<clipPath id="clip5_221_16019">
<rect width="18.8583" height="14.4211" fill="white" transform="translate(159.992 599.596)"/>
</clipPath>
</defs>
</svg>
