<svg width="24" height="24" viewBox="0 0 24 24" fill="none" xmlns="http://www.w3.org/2000/svg">
<path d="M6.89332 14.9193H4.79199C4.51585 14.9193 4.29199 15.1432 4.29199 15.4193V20.3483C4.29199 20.6245 4.51585 20.8483 4.79199 20.8483H6.89332C7.16946 20.8483 7.39332 20.6245 7.39332 20.3483V15.4193C7.39332 15.1432 7.16946 14.9193 6.89332 14.9193Z" fill="#CB8C18"/>
<path d="M19.1169 14.9193H17.0156C16.7395 14.9193 16.5156 15.1432 16.5156 15.4193V20.3483C16.5156 20.6245 16.7395 20.8483 17.0156 20.8483H19.1169C19.3931 20.8483 19.6169 20.6245 19.6169 20.3483V15.4193C19.6169 15.1432 19.3931 14.9193 19.1169 14.9193Z" fill="#CB8C18"/>
<g clip-path="url(#clip0_154_3445)">
<path d="M21.2334 4.00006H2.7666C2.49046 4.00006 2.2666 4.22392 2.2666 4.50006V15.5001C2.2666 15.7762 2.49046 16.0001 2.7666 16.0001H21.2334C21.5095 16.0001 21.7334 15.7762 21.7334 15.5001V4.50006C21.7334 4.22392 21.5095 4.00006 21.2334 4.00006Z" fill="#FFB732"/>
<rect x="14.4355" y="8.09821" width="5.03223" height="1.73682" rx="0.868408" fill="#CB8C18"/>
<rect x="14.4355" y="10.7562" width="3.29492" height="1.73682" rx="0.868408" fill="#CB8C18"/>
</g>
<path d="M10.0395 7.49164L8.48885 9.58959L9.67466 11.1403L9.03615 11.6875L7.21184 9.22473L4.74902 12.5085H13.8706L10.0395 7.49164ZM10.0395 7.49164L8.48885 9.58959L9.67466 11.1403L9.03615 11.6875L7.21184 9.22473L4.74902 12.5085H13.8706L10.0395 7.49164ZM10.0395 7.49164L8.48885 9.58959L9.67466 11.1403L9.03615 11.6875L7.21184 9.22473L4.74902 12.5085H13.8706L10.0395 7.49164Z" fill="#CF8A0B"/>
<defs>
<clipPath id="clip0_154_3445">
<rect x="2" y="4.00006" width="20" height="12" rx="0.5" fill="white"/>
</clipPath>
</defs>
</svg>
