<svg width="24" height="24" viewBox="0 0 24 24" fill="none" xmlns="http://www.w3.org/2000/svg">
<g clip-path="url(#clip0_154_3471)">
<path d="M21 2.43427H3V8.81141H21V2.43427Z" fill="#FFB732"/>
<path d="M21 8.8114H3V15.1885H21V8.8114Z" fill="#CB8C18"/>
<path d="M21 15.1885H3V21.5657H21V15.1885Z" fill="#FFB732"/>
<path d="M14.4172 6.28011H9.58294C9.06866 6.28011 8.65723 5.89556 8.65723 5.41487C8.65723 4.93418 9.06866 4.54962 9.58294 4.54962H14.4172C14.9315 4.54962 15.3429 4.93418 15.3429 5.41487C15.3429 5.89556 14.9315 6.28011 14.4172 6.28011Z" fill="#CB8C18"/>
<path d="M14.4172 12.8169H9.58294C9.06866 12.8169 8.65723 12.4324 8.65723 11.9517C8.65723 11.471 9.06866 11.0864 9.58294 11.0864H14.4172C14.9315 11.0864 15.3429 11.471 15.3429 11.9517C15.3429 12.4324 14.9315 12.8169 14.4172 12.8169Z" fill="#FFB732"/>
<path d="M14.4172 19.4505H9.58294C9.06866 19.4505 8.65723 19.066 8.65723 18.5853C8.65723 18.1046 9.06866 17.72 9.58294 17.72H14.4172C14.9315 17.72 15.3429 18.1046 15.3429 18.5853C15.3429 19.066 14.9315 19.4505 14.4172 19.4505Z" fill="#CB8C18"/>
</g>
<defs>
<clipPath id="clip0_154_3471">
<rect x="3" y="2.43427" width="18" height="19.1314" rx="0.5" fill="white"/>
</clipPath>
</defs>
</svg>
