<svg width="24" height="24" viewBox="0 0 24 24" fill="none" xmlns="http://www.w3.org/2000/svg">
<path d="M22.7588 7.75H19.7588V15.75H22.7588V7.75Z" fill="#FFB732"/>
<path d="M4.24219 7.68799H1.24219V15.3882H4.24219V7.68799Z" fill="#CB8C18"/>
<path d="M12.142 17.9999C12.342 18.2999 12.742 18.3999 13.142 18.3999C13.642 18.3999 14.042 18.1999 14.342 17.7999L15.042 16.9999C15.242 17.0999 15.542 17.1999 15.742 17.1999C16.242 17.1999 16.642 16.9999 16.942 16.5999L17.242 16.1999C17.742 15.5999 17.642 14.5999 17.042 14.0999L12.042 9.9999L10.842 11.1999C10.542 11.4999 10.042 11.6999 9.642 11.6999C9.142 11.6999 8.642 11.4999 8.342 11.0999C7.642 10.3999 7.74199 9.2999 8.44199 8.5999L11.942 5.3999H8.04199C7.64199 5.3999 7.24199 5.4999 6.94199 5.7999L5.04199 7.6999V15.3999H6.04199L8.74199 17.7999C9.24199 18.1999 9.74199 18.3999 10.342 18.3999C10.942 18.3999 11.542 18.1999 11.942 17.7999L12.142 17.9999Z" fill="#CB8C18"/>
<path d="M11.5982 10.7498L18.0982 15.7498H18.7982V7.7498L18.0982 7.6498L16.0982 5.6498C15.6982 5.2498 15.1982 5.0498 14.6982 5.0498H11.9982C11.4982 5.0498 11.0982 5.2498 10.6982 5.5498L7.59821 8.3498C6.69821 9.2498 6.69821 10.5498 7.49821 11.4498C7.89821 11.9498 8.49821 12.1498 9.19821 12.1498C9.59821 12.1498 10.0982 12.0498 10.4982 11.7498L10.605 11.658L10.6982 11.5498L11.5982 10.7498Z" fill="#FFB732"/>
</svg>
