<svg width="24" height="24" viewBox="0 0 24 24" fill="none" xmlns="http://www.w3.org/2000/svg">
<path d="M6.10181 8.93318C7.34513 8.93318 8.35304 7.92527 8.35304 6.68195C8.35304 5.43863 7.34513 4.43073 6.10181 4.43073C4.85849 4.43073 3.85059 5.43863 3.85059 6.68195C3.85059 7.92527 4.85849 8.93318 6.10181 8.93318Z" fill="#CB8C18"/>
<path d="M6.10196 19.5592C4.12088 19.5592 2.5 17.9383 2.5 15.9572V10.6443C2.5 10.2841 2.77014 10.014 3.13034 10.014H9.07358C9.43377 10.014 9.70392 10.2841 9.70392 10.6443V15.9572C9.70392 17.9383 8.08304 19.5592 6.10196 19.5592Z" fill="#CB8C18"/>
<path d="M17.8977 8.93336C19.141 8.93336 20.1489 7.92545 20.1489 6.68213C20.1489 5.43882 19.141 4.43091 17.8977 4.43091C16.6544 4.43091 15.6465 5.43882 15.6465 6.68213C15.6465 7.92545 16.6544 8.93336 17.8977 8.93336Z" fill="#CB8C18"/>
<path d="M17.8979 19.5592C15.9168 19.5592 14.2959 17.9383 14.2959 15.9572V10.6443C14.2959 10.2841 14.566 10.014 14.9262 10.014H20.8695C21.2297 10.014 21.4998 10.2841 21.4998 10.6443V15.9572C21.4998 17.9383 19.8789 19.5592 17.8979 19.5592Z" fill="#CB8C18"/>
<path d="M11.9542 8.66309C13.3964 8.66309 14.5656 7.49392 14.5656 6.05167C14.5656 4.60942 13.3964 3.44025 11.9542 3.44025C10.5119 3.44025 9.34277 4.60942 9.34277 6.05167C9.34277 7.49392 10.5119 8.66309 11.9542 8.66309Z" fill="#FFB732"/>
<path d="M11.9546 20.4595C9.70332 20.4595 7.90234 18.6585 7.90234 16.4073V10.464C7.90234 10.1038 8.26254 9.74365 8.62273 9.74365H15.2864C15.6466 9.74365 16.0068 10.1038 16.0068 10.464V16.4073C16.0068 18.6585 14.2058 20.4595 11.9546 20.4595Z" fill="#FFB732"/>
</svg>
