<svg width="24" height="24" viewBox="0 0 24 24" fill="none" xmlns="http://www.w3.org/2000/svg">
<path d="M6.89332 14.9192H4.79199C4.51585 14.9192 4.29199 15.143 4.29199 15.4192V20.3482C4.29199 20.6243 4.51585 20.8482 4.79199 20.8482H6.89332C7.16946 20.8482 7.39332 20.6243 7.39332 20.3482V15.4192C7.39332 15.143 7.16946 14.9192 6.89332 14.9192Z" fill="#CB8C18"/>
<path d="M19.1169 14.9192H17.0156C16.7395 14.9192 16.5156 15.143 16.5156 15.4192V20.3482C16.5156 20.6243 16.7395 20.8482 17.0156 20.8482H19.1169C19.3931 20.8482 19.6169 20.6243 19.6169 20.3482V15.4192C19.6169 15.143 19.3931 14.9192 19.1169 14.9192Z" fill="#CB8C18"/>
<path d="M22.4348 4.10004H1.56543V16.0999H22.4348V4.10004Z" fill="#FFB636"/>
<path d="M6.5219 4.10004L1.56543 10.1V4.10004L3.52193 4.10004H6.5219Z" fill="#CB8C18"/>
<path d="M12.261 4.10004L2.47846 16.0999H1.56543V13.3608L9.26099 4.10004H12.261Z" fill="#CB8C18"/>
<path d="M17.9998 4.10004L8.08689 16.0999H5.08691L14.8694 4.10004H17.9998Z" fill="#CB8C18"/>
<path d="M22.4338 4.10004V5.5348L13.8251 16.0999H10.8252L20.6077 4.10004H22.4338Z" fill="#CB8C18"/>
<path d="M22.4349 8.79584V12.448L19.5654 16.1001H16.5654L22.4349 8.79584Z" fill="#CB8C18"/>
</svg>
