<svg width="24" height="24" viewBox="0 0 24 24" fill="none" xmlns="http://www.w3.org/2000/svg">
<path fill-rule="evenodd" clip-rule="evenodd" d="M4.17157 3.57123C4.92172 2.82108 5.93913 2.39966 7 2.39966H20.5C20.7761 2.39966 21 2.62352 21 2.89966V21.1C21 21.3762 20.7761 21.6 20.5 21.6H7C5.93913 21.6 4.92172 21.1786 4.17157 20.4284C3.42143 19.6783 3 18.6609 3 17.6L3 6.39966C3 5.33879 3.42143 4.32138 4.17157 3.57123ZM5.58578 16.1858C5.21071 16.5609 5 17.0696 5 17.6C5 18.1305 5.21071 18.6392 5.58578 19.0142C5.96086 19.3893 6.46957 19.6 7 19.6H18.5C18.7761 19.6 19 19.3762 19 19.1V16.1C19 15.8239 18.7761 15.6 18.5 15.6H7C6.46957 15.6 5.96086 15.8107 5.58578 16.1858Z" fill="#FFB732"/>
<path d="M18.1946 11.2801H13.3603C12.846 11.2801 12.4346 10.8955 12.4346 10.4148C12.4346 9.93411 12.846 9.54956 13.3603 9.54956H18.1946C18.7089 9.54956 19.1203 9.93411 19.1203 10.4148C19.1203 10.8955 18.7089 11.2801 18.1946 11.2801Z" fill="#CB8C18"/>
<path d="M18.1946 8.02322H13.3603C12.846 8.02322 12.4346 7.63866 12.4346 7.15797C12.4346 6.67728 12.846 6.29272 13.3603 6.29272H18.1946C18.7089 6.29272 19.1203 6.67728 19.1203 7.15797C19.1203 7.63866 18.7089 8.02322 18.1946 8.02322Z" fill="#CB8C18"/>
</svg>
