<svg width="24" height="24" viewBox="0 0 24 24" fill="none" xmlns="http://www.w3.org/2000/svg">
<path d="M2.5498 16.8945C2.5498 17.1707 2.77366 17.3945 3.0498 17.3945H20.9498C21.2259 17.3945 21.4498 17.1707 21.4498 16.8945V15.3945V11.0056C21.4498 10.6056 21.2498 10.2056 21.0498 9.90564L17.4498 6.40564H15.4498V3.90564C15.4498 3.6295 15.2259 3.40564 14.9498 3.40564H3.0498C2.77366 3.40564 2.5498 3.6295 2.5498 3.90564V16.8945ZM19.9498 12.3945H15.4498V7.90564H16.8498L19.9498 11.0056V12.3945Z" fill="#FFB732"/>
<path d="M8.1 5.89966C8.04477 5.89966 8 5.94443 8 5.99966V7.79966C8 7.85489 7.95523 7.89966 7.9 7.89966H6.1C6.04477 7.89966 6 7.94443 6 7.99966V9.79966C6 9.85489 6.04477 9.89966 6.1 9.89966H7.9C7.95523 9.89966 8 9.94443 8 9.99966V11.7997C8 11.8549 8.04477 11.8997 8.1 11.8997H9.9C9.95523 11.8997 10 11.8549 10 11.7997V9.99966C10 9.94443 10.0448 9.89966 10.1 9.89966H11.9C11.9552 9.89966 12 9.85489 12 9.79966V7.99966C12 7.94443 11.9552 7.89966 11.9 7.89966H10.1C10.0448 7.89966 10 7.85489 10 7.79966V5.99966C10 5.94443 9.95523 5.89966 9.9 5.89966H8.1Z" fill="#CB8C18"/>
<path d="M7.15 20.5944C8.75163 20.5944 10.05 19.2961 10.05 17.6944C10.05 16.0928 8.75163 14.7944 7.15 14.7944C5.54837 14.7944 4.25 16.0928 4.25 17.6944C4.25 19.2961 5.54837 20.5944 7.15 20.5944Z" fill="#CB8C18"/>
<path d="M16.9498 20.5944C18.5514 20.5944 19.8498 19.2961 19.8498 17.6944C19.8498 16.0928 18.5514 14.7944 16.9498 14.7944C15.3482 14.7944 14.0498 16.0928 14.0498 17.6944C14.0498 19.2961 15.3482 20.5944 16.9498 20.5944Z" fill="#CB8C18"/>
</svg>
