<svg width="24" height="24" viewBox="0 0 24 24" fill="none" xmlns="http://www.w3.org/2000/svg">
<path d="M20.9209 12.042C20.9209 14.5615 19.92 16.9779 18.1384 18.7595C16.3568 20.5411 13.9405 21.542 11.4209 21.542C8.90134 21.542 6.48498 20.5411 4.70338 18.7595C2.92179 16.9779 1.9209 14.5616 1.9209 12.042L11.4209 12.042H20.9209Z" fill="#CB8C18"/>
<path d="M6.95615 1.78516C7.965 1.78516 8.97385 2.03737 9.81456 2.45772C10.7393 2.96215 11.496 3.63471 12.0845 4.39135C11.1597 5.56834 10.7393 6.99755 10.7393 8.42675V9.26746H10.319C8.63757 9.26746 7.04022 8.59489 5.86323 7.4179C4.68624 6.24091 4.01367 4.64356 4.01367 2.96215V1.78516H6.95615Z" fill="#CB8C18"/>
<path d="M13.2615 12.0421H19.7345L18.1372 15.9934C18.1372 15.9934 17.7168 17.2545 17.2124 17.6748L16.0354 18.5996C15.8673 18.6837 15.6151 18.7677 15.6151 18.7677C15.6151 18.7677 14.2699 18.5155 14.1018 17.927C14.1859 16.75 14.0177 15.5731 13.5974 14.4801C13.5775 14.4404 13.5624 14.3914 13.5464 14.3396C13.4946 14.172 13.4339 13.9757 13.177 13.9757H10.9071C10.9071 13.9757 10.4354 12.8749 10.1001 12.0421H11.5801V8.51093C11.5801 6.91359 12.1686 5.48438 13.3456 4.39146C14.4385 3.29854 15.9518 2.62598 17.465 2.62598H19.9872V4.30739C19.9872 5.90474 19.3987 7.33394 18.2217 8.42686C17.0447 9.51978 15.6995 10.1923 14.1022 10.1923H13.2615V12.0421Z" fill="#FFB732"/>
<path d="M10.1001 12.0421C10.0887 12.0137 10.0775 11.9857 10.0664 11.958V12.0421H10.1001Z" fill="#FFB732"/>
<path d="M7.20902 17.7587L7.29309 14.9844C7.29309 14.8163 7.12495 14.6481 6.95681 14.6481C6.1161 14.3118 3.76212 12.8826 3.42584 12.0419H1.96335C1.7547 14.9844 3.62249 17.6603 4.43469 18.5154C4.43469 18.5154 6.62053 18.1791 7.12495 18.011C7.20902 17.9269 7.20902 17.8428 7.20902 17.7587Z" fill="#FFB732"/>
</svg>
