<svg width="24" height="24" viewBox="0 0 24 24" fill="none" xmlns="http://www.w3.org/2000/svg">
<g clip-path="url(#clip0_154_3556)">
<path d="M19.9008 5.46873C20.0825 5.54849 20.1998 5.72813 20.1998 5.92655V11.1C20.1998 16.0577 16.7588 20.8187 12.1189 21.9713C12.0409 21.9906 11.9589 21.9898 11.8813 21.9689C7.2411 20.7208 3.7998 16.0579 3.7998 11.1V5.92655C3.7998 5.72813 3.91713 5.54849 4.09881 5.46873L11.7988 2.08824C11.9269 2.032 12.0727 2.032 12.2008 2.08824L19.9008 5.46873Z" fill="#FFB732"/>
<path d="M15.9 9.90001L10.8 15.3L8 12.5L9.2 11.3L10.8 12.9L14.7 8.70001L15.9 9.90001Z" fill="#CB8C18"/>
</g>
<defs>
<clipPath id="clip0_154_3556">
<rect width="16.4" height="20" fill="white" transform="translate(3.7998 2)"/>
</clipPath>
</defs>
</svg>
