<svg width="24" height="24" viewBox="0 0 24 24" fill="none" xmlns="http://www.w3.org/2000/svg">
<path fill-rule="evenodd" clip-rule="evenodd" d="M20 14.1967C20 14.3154 20 14.3154 19.8813 14.4342L18.1002 17.4026C17.9815 17.5214 17.8627 17.6401 17.744 17.6401C17.6252 17.6401 17.3878 17.6401 17.269 17.6401L14.3006 15.9778V19.4212C14.3006 19.5399 14.3006 19.7774 14.1818 19.7774C14.0631 19.8961 13.9443 20.0149 13.7069 20.0149H10.2635C10.1447 20.0149 9.90723 20.0149 9.90723 19.7774C9.78849 19.6586 9.66976 19.5399 9.66976 19.4212V15.9778L6.7013 17.6401C6.58256 17.7588 6.34509 17.7588 6.22635 17.6401C6.10761 17.6401 5.98887 17.5214 5.87013 17.4026L4.08905 14.4342C3.97032 14.3154 3.97032 14.0779 4.08905 13.9592C4.08905 13.8405 4.20779 13.7217 4.32653 13.603L7.29499 11.9406L4.32653 10.2783C4.20779 10.1596 4.08905 10.0408 4.08905 9.92209C4.08905 9.80335 4.08905 9.56588 4.08905 9.44714L5.87013 6.47868C5.98887 6.35994 6.10761 6.2412 6.22635 6.2412C6.34509 6.2412 6.58256 6.2412 6.7013 6.35994L9.66976 8.02228V4.57886C9.66976 4.46012 9.78849 4.22264 9.90723 4.10391C10.026 3.98517 10.1447 3.98517 10.2635 3.98517H13.7069C13.8256 3.98517 14.0631 4.10391 14.1818 4.10391C14.3006 4.22264 14.3006 4.34138 14.3006 4.57886V8.02228L17.269 6.35994C17.3878 6.2412 17.6252 6.2412 17.744 6.2412C17.8627 6.2412 17.9815 6.35994 18.1002 6.47868L19.8813 9.44714C20 9.56588 20 9.80335 19.8813 9.92209C19.8813 10.0408 19.7625 10.1596 19.6438 10.2783L16.6753 11.9406L19.6438 13.603C19.7625 13.603 19.7625 13.7217 19.7625 13.7217C19.7625 13.7217 19.8813 13.8405 19.8813 13.9592C20 14.0779 20 14.1967 20 14.1967Z" fill="#FFB636"/>
</svg>
