<svg width="24" height="24" viewBox="0 0 24 24" fill="none" xmlns="http://www.w3.org/2000/svg">
<path d="M9.72168 3.93372C9.44554 3.93372 9.22168 4.15757 9.22168 4.43372V5.63782C9.22168 5.805 9.30523 5.96111 9.44433 6.05385L12.2798 7.94415C12.4667 8.06873 12.717 7.93478 12.717 7.71019C12.717 7.55489 12.8429 7.429 12.9982 7.429H14.0094C14.2856 7.429 14.5094 7.65285 14.5094 7.929V9.1176C14.5094 9.29323 14.6016 9.45598 14.7522 9.54635L15.1629 9.79278C15.3135 9.88314 15.4056 10.0459 15.4056 10.2215V19.5658C15.4056 19.8419 15.6295 20.0658 15.9056 20.0658H21C21.2761 20.0658 21.5 19.8419 21.5 19.5658V4.43372C21.5 4.15757 21.2761 3.93372 21 3.93372H9.72168ZM18.9009 15.712C18.9009 15.9882 18.6771 16.212 18.4009 16.212H17.6085C17.3323 16.212 17.1085 15.9882 17.1085 15.712V14.9196C17.1085 14.6434 17.3323 14.4196 17.6085 14.4196H18.4009C18.6771 14.4196 18.9009 14.6434 18.9009 14.9196V15.712ZM18.9009 12.2167C18.9009 12.4929 18.6771 12.7167 18.4009 12.7167H17.6085C17.3323 12.7167 17.1085 12.4929 17.1085 12.2167V11.4243C17.1085 11.1481 17.3323 10.9243 17.6085 10.9243H18.4009C18.6771 10.9243 18.9009 11.1481 18.9009 11.4243V12.2167ZM18.9009 8.63183C18.9009 8.90797 18.6771 9.13183 18.4009 9.13183H17.6085C17.3323 9.13183 17.1085 8.90797 17.1085 8.63183V7.83938C17.1085 7.56323 17.3323 7.33937 17.6085 7.33937H18.4009C18.6771 7.33937 18.9009 7.56323 18.9009 7.83937V8.63183Z" fill="#CB8C18"/>
<path d="M3 20.0658C2.72386 20.0658 2.5 19.842 2.5 19.5658V10.4749C2.5 10.3077 2.58355 10.1516 2.72265 10.0589L8.94434 5.9111C9.11229 5.79913 9.33109 5.79913 9.49904 5.9111L15.7207 10.0589C15.8598 10.1516 15.9434 10.3077 15.9434 10.4749V19.5658C15.9434 19.842 15.7195 20.0658 15.4434 20.0658H11.9623C11.6861 20.0658 11.4623 19.842 11.4623 19.5658V15.8158C11.4623 15.5397 11.2384 15.3158 10.9623 15.3158H7.48113C7.20499 15.3158 6.98113 15.5397 6.98113 15.8158V19.5658C6.98113 19.842 6.75727 20.0658 6.48113 20.0658H3Z" fill="#FFB732"/>
</svg>
