<svg width="24" height="24" viewBox="0 0 24 24" fill="none" xmlns="http://www.w3.org/2000/svg">
<path d="M16.8647 12.8184V13.7275C16.8647 16.273 16.2283 18.6366 15.1374 20.8184L14.9556 21.182L13.4102 20.2729C14.5011 18.3638 15.0465 16.273 15.1374 14.0912V13.6366V12.7275H16.8647V12.8184Z" fill="#CB8C18"/>
<path d="M11.4103 10.0914H13.2285V13.7278V14.0914C13.1376 16.5459 12.3194 19.0004 10.774 20.9095L10.5921 21.1822L9.22852 20.0004C10.5921 18.2732 11.4103 16.1823 11.5012 14.0005V13.6368V10.0914H11.4103Z" fill="#FFB732"/>
<path d="M12.3195 6.45471C13.5014 6.45471 14.6832 6.90925 15.5013 7.81833C16.3195 8.63651 16.865 9.81831 16.865 11.0001H15.0468C15.0468 10.2729 14.7741 9.54559 14.2286 9.09105C13.6832 8.63651 13.0468 8.27287 12.3195 8.27287C11.5923 8.27287 10.865 8.5456 10.4105 9.09105C9.86502 9.6365 9.5923 10.2729 9.5923 11.0001V13.7274C9.5923 15.7273 8.86503 17.6364 7.50141 19.1819L7.3196 19.3637L6.04688 18.091C7.13777 17.0001 7.77414 15.5455 7.77414 14.0001V13.7274V11.0001C7.77414 9.81831 8.22868 8.63651 9.13776 7.81833C9.95593 6.90925 11.1377 6.45471 12.3195 6.45471Z" fill="#FFB732"/>
<path d="M12.3193 2.8186C14.5011 2.8186 16.592 3.63678 18.1374 5.18222C19.6828 6.72765 20.501 8.81854 20.501 11.0003V13.7276C20.501 15.273 20.3192 16.8185 19.9556 18.273L19.8647 18.7275L18.1374 18.273C18.501 17.0003 18.6828 15.6367 18.7738 14.273V13.7276V11.0003C18.7738 9.81853 18.4101 8.63672 17.8647 7.63673C17.2283 6.63675 16.3192 5.81857 15.3193 5.27312C14.2284 4.72767 13.0465 4.54586 11.8647 4.63677C10.6829 4.72767 9.59203 5.18222 8.59204 5.90948L7.31934 4.63677C8.68296 3.45496 10.5011 2.8186 12.3193 2.8186Z" fill="#FFB732"/>
<path d="M5.95549 5.90955L7.2282 7.18226C6.41003 8.18225 6.0464 9.45496 5.95549 10.8186V11.0004V12.8186C5.95549 13.8186 5.68277 14.8185 5.22823 15.7276L5.04641 16.0003L3.50098 15.0913C3.86461 14.4549 4.04642 13.8186 4.04642 13.0913V12.8186V11.0004C4.13733 9.09133 4.77369 7.36408 5.95549 5.90955Z" fill="#CB8C18"/>
</svg>
