<svg width="24" height="24" viewBox="0 0 24 24" fill="none" xmlns="http://www.w3.org/2000/svg">
<path d="M15.0828 12.6294H8.79139V11.3711H2.5V19.0466C2.5 19.1724 2.5 19.2982 2.62583 19.4241C2.75165 19.5499 2.87749 19.5499 3.00331 19.5499H20.9967C21.1225 19.5499 21.2483 19.5499 21.3742 19.4241C21.5 19.2982 21.5 19.1724 21.5 19.0466V11.3711H15.2086V12.6294H15.0828Z" fill="#FFB732"/>
<path d="M21.3733 7.09282C21.2467 6.967 21.12 6.967 20.9933 6.967H17.0667V4.82792C17.0667 4.7021 17.0667 4.70209 16.94 4.57627C16.94 4.57627 16.8133 4.45044 16.6867 4.45044H7.18667C7.06 4.45044 7.06 4.45044 6.93333 4.57627C6.93333 4.57627 6.80667 4.7021 6.80667 4.82792V7.09282H2.88C2.75333 7.09282 2.62667 7.09282 2.5 7.21865C2.62667 7.21865 2.5 7.34448 2.5 7.47031V11.371H21.5V7.47031C21.5 7.34448 21.5 7.21865 21.3733 7.09282ZM15.5467 6.967H8.58V6.0862H15.5467V6.967Z" fill="#CB8C18"/>
</svg>
