<svg width="24" height="24" viewBox="0 0 24 24" fill="none" xmlns="http://www.w3.org/2000/svg">
<g clip-path="url(#clip0_154_3560)">
<path d="M14.2178 10.2612L13.6026 10.8764C13.4073 11.0717 13.4073 11.3883 13.6026 11.5835L19.342 17.323C19.5373 17.5182 19.8539 17.5182 20.0491 17.323L20.6644 16.7077C20.8597 16.5124 20.8596 16.1959 20.6644 16.0006L14.9249 10.2612C14.7297 10.0659 14.4131 10.0659 14.2178 10.2612Z" fill="#CB8C18"/>
<path d="M13.3614 2.93621L6.46488 9.83273C6.26962 10.028 6.26962 10.3446 6.46488 10.5398L10.2208 14.2957C10.416 14.491 10.7326 14.491 10.9279 14.2957L17.8244 7.3992C18.0197 7.20394 18.0197 6.88736 17.8244 6.6921L14.0685 2.93621C13.8732 2.74095 13.5567 2.74095 13.3614 2.93621Z" fill="#FFB732"/>
<path d="M16.1875 21.0661C16.2532 21.2303 16.1323 21.4089 15.9554 21.4089H3.36926C3.19239 21.4089 3.07145 21.2303 3.13714 21.0661L4.80727 16.8907C4.84523 16.7958 4.93716 16.7336 5.03939 16.7336H14.2853C14.3875 16.7336 14.4794 16.7958 14.5174 16.8907L16.1875 21.0661Z" fill="#CB8C18"/>
</g>
<defs>
<clipPath id="clip0_154_3560">
<rect width="18" height="18.8182" fill="white" transform="translate(3 2.5907)"/>
</clipPath>
</defs>
</svg>
