<svg width="24" height="24" viewBox="0 0 24 24" fill="none" xmlns="http://www.w3.org/2000/svg">
<path d="M5.1267 11.6059H2.5V19.486H5.1267V11.6059Z" fill="#FFB732"/>
<path d="M18.6977 12.9193C19.2231 12.7442 19.6608 12.7442 20.0986 13.0068C20.4489 13.2695 20.7991 13.6197 20.8866 14.0575L15.1079 18.7856L6.26465 19.486V11.6935L7.84067 11.1682L14.6701 11.3433C15.1079 11.3433 15.5457 11.6059 15.6332 12.0437C15.7208 12.3064 15.7208 12.5691 15.6332 12.8317C15.5457 13.0944 15.283 13.3571 15.0203 13.4446L12.6563 14.1451L10.9927 14.0575V14.8455L12.919 14.9331L18.6977 12.9193Z" fill="#FFB732"/>
<path d="M21.5 4.51373H10.9932V9.8547H21.5V4.51373Z" fill="#CB8C18"/>
<path d="M16.2469 8.45391C16.9723 8.45391 17.5603 7.86591 17.5603 7.14056C17.5603 6.41522 16.9723 5.82721 16.2469 5.82721C15.5216 5.82721 14.9336 6.41522 14.9336 7.14056C14.9336 7.86591 15.5216 8.45391 16.2469 8.45391Z" fill="#FFB732"/>
</svg>
