<svg width="24" height="24" viewBox="0 0 24 24" fill="none" xmlns="http://www.w3.org/2000/svg">
<path d="M19.2909 17.5232V10.8953H17.5234V17.5232C17.5234 19.7325 19.2909 21.5 21.5002 21.5V19.7325C20.263 19.7325 19.2909 18.7604 19.2909 17.5232Z" fill="#CB8C18"/>
<path d="M10.8953 19.2907C15.4907 19.2907 19.2907 15.4907 19.2907 10.8953C19.2907 6.3 15.4907 2.5 10.8953 2.5C6.3 2.5 2.5 6.3 2.5 10.8953C2.5 15.4907 6.3 19.2907 10.8953 19.2907Z" fill="#FFB732"/>
<path d="M10.8954 11.7791C11.4257 11.7791 11.7792 11.4256 11.7792 10.8954C11.7792 10.3651 11.4257 10.0117 10.8954 10.0117C10.3652 10.0117 10.0117 10.3651 10.0117 10.8954C10.0117 11.4256 10.4536 11.7791 10.8954 11.7791Z" fill="white"/>
<path d="M10.8958 8.68618C12.133 8.68618 13.1051 7.71409 13.1051 6.47688C13.1051 5.23967 12.133 4.26758 10.8958 4.26758C9.65862 4.26758 8.68652 5.23967 8.68652 6.47688C8.68652 7.71409 9.74699 8.68618 10.8958 8.68618Z" fill="#CB8C18"/>
<path d="M10.8958 17.5231C12.133 17.5231 13.1051 16.551 13.1051 15.3138C13.1051 14.0766 12.133 13.1045 10.8958 13.1045C9.65862 13.1045 8.68652 14.0766 8.68652 15.3138C8.68652 16.551 9.74699 17.5231 10.8958 17.5231Z" fill="#CB8C18"/>
<path d="M15.3138 13.1046C16.551 13.1046 17.5231 12.1325 17.5231 10.8953C17.5231 9.65813 16.551 8.68604 15.3138 8.68604C14.0766 8.68604 13.1045 9.65813 13.1045 10.8953C13.1045 12.1325 14.165 13.1046 15.3138 13.1046Z" fill="#CB8C18"/>
<path d="M6.47688 13.1046C7.71409 13.1046 8.68618 12.1325 8.68618 10.8953C8.68618 9.65813 7.71409 8.68604 6.47688 8.68604C5.23967 8.68604 4.26758 9.65813 4.26758 10.8953C4.26758 12.1325 5.32804 13.1046 6.47688 13.1046Z" fill="#CB8C18"/>
</svg>
