<svg width="24" height="24" viewBox="0 0 24 24" fill="none" xmlns="http://www.w3.org/2000/svg">
<path d="M19.4512 9.62463H16.1914V18.8452H19.4512V9.62463Z" fill="#CB8C18"/>
<path d="M13.583 9.62439H10.3232V18.845H13.583V9.62439Z" fill="#CB8C18"/>
<path d="M7.99516 9.62463H4.73535V18.8452H7.99516V9.62463Z" fill="#CB8C18"/>
<path fill-rule="evenodd" clip-rule="evenodd" d="M2.7493 7.39742C2.65282 7.44996 2.59277 7.55103 2.59277 7.66089V9.32481C2.59277 9.4905 2.72709 9.62481 2.89277 9.62481H21.1065C21.2722 9.62481 21.4065 9.4905 21.4065 9.32481V7.66089C21.4065 7.55103 21.3465 7.44996 21.25 7.39742L12.1431 2.43824C12.0537 2.38953 11.9456 2.38953 11.8562 2.43824L2.7493 7.39742ZM11.9996 7.01697C12.5585 7.01697 13.1173 6.55128 13.1173 5.89932C13.1173 5.25571 12.6634 4.79364 12.0246 4.7819C12.0081 4.7816 11.9915 4.78296 11.9752 4.78598C11.4247 4.88841 10.882 5.34999 10.882 5.99246C10.882 6.64442 11.4408 7.01697 11.9996 7.01697Z" fill="#FFB732"/>
<path d="M21.2 18.4901H2.8C2.63431 18.4901 2.5 18.6244 2.5 18.7901V21.3397C2.5 21.5054 2.63431 21.6397 2.8 21.6397H21.2C21.3657 21.6397 21.5 21.5054 21.5 21.3397V18.7901C21.5 18.6244 21.3657 18.4901 21.2 18.4901Z" fill="#FFB732"/>
</svg>
