<svg width="35" height="34" viewBox="0 0 35 34" fill="none" xmlns="http://www.w3.org/2000/svg">
<rect x="0.5" y="0.815918" width="34" height="33" rx="8" fill="white"/>
<path d="M23.7566 8.73645C24.7552 8.16564 25.9998 8.88743 25.9998 10.0392V22.5929C25.9997 23.672 24.9063 24.3745 23.946 23.9874L23.7556 23.8947L19.9998 21.7482V10.8829L23.7556 8.73743L23.7566 8.73645ZM11.9998 20.8068L11.5994 20.7257C10.5058 20.5036 9.53368 19.883 8.87183 18.9845C8.25134 18.1421 7.94507 17.1118 8.00171 16.0714L8.01733 15.8634C8.1225 14.8227 8.5871 13.8536 9.3269 13.1202L9.47827 12.9767C10.2547 12.2754 11.2499 11.8677 12.2908 11.8204L12.4998 11.8156H16.9998V20.8156H15.9998V24.8156C15.9998 25.2797 15.8382 25.7272 15.5466 26.0831L15.4138 26.2296C15.0387 26.6047 14.5302 26.8156 13.9998 26.8156C13.4694 26.8155 12.9607 26.6047 12.5857 26.2296C12.2108 25.8546 11.9998 25.3459 11.9998 24.8156V20.8068Z" fill="#FCA834" stroke="#FCA834"/>
</svg>
