<svg width="24" height="24" viewBox="0 0 24 24" fill="none" xmlns="http://www.w3.org/2000/svg">
<path d="M18.175 21.0275H15.2C14.8841 21.0275 14.6279 20.7714 14.6279 20.4554V14.7342C14.6279 14.4183 14.8841 14.1621 15.2 14.1621H20.9212C21.2372 14.1621 21.4933 14.4183 21.4933 14.7342V17.7092C21.6077 19.54 20.1202 21.0275 18.175 21.0275Z" fill="#CB8C18"/>
<path d="M16.874 2.97217H2.99902C2.72288 2.97217 2.49902 3.19603 2.49902 3.47217V20.5276C2.49902 20.8038 2.72288 21.0276 2.99902 21.0276H17.374V3.47217C17.374 3.19603 17.1502 2.97217 16.874 2.97217Z" fill="#FFB732"/>
<path d="M12.6823 8.68169H7.18997C6.61785 8.68169 6.16016 8.224 6.16016 7.65188C6.16016 7.07976 6.61785 6.62207 7.18997 6.62207H12.6823C13.2544 6.62207 13.7121 7.07976 13.7121 7.65188C13.7121 8.224 13.2544 8.68169 12.6823 8.68169Z" fill="#CB8C18"/>
<path d="M12.6823 13.0298H7.18997C6.61785 13.0298 6.16016 12.5721 6.16016 12C6.16016 11.4279 6.61785 10.9702 7.18997 10.9702H12.6823C13.2544 10.9702 13.7121 11.4279 13.7121 12C13.7121 12.5721 13.2544 13.0298 12.6823 13.0298Z" fill="#CB8C18"/>
<path d="M10.3938 17.378H7.18997C6.61785 17.378 6.16016 16.9203 6.16016 16.3482C6.16016 15.7761 6.61785 15.3184 7.18997 15.3184H10.3938C10.9659 15.3184 11.4236 15.7761 11.4236 16.3482C11.4236 16.9203 10.9659 17.378 10.3938 17.378Z" fill="#CB8C18"/>
</svg>
