<svg width="24" height="24" viewBox="0 0 24 24" fill="none" xmlns="http://www.w3.org/2000/svg">
<path d="M10.3444 9.62671H6.75195C6.47581 9.62671 6.25195 9.85057 6.25195 10.1267V20.5389C6.25195 20.8151 6.47581 21.0389 6.75195 21.0389H10.3444C10.6205 21.0389 10.8444 20.8151 10.8444 20.5389V10.1267C10.8444 9.85057 10.6205 9.62671 10.3444 9.62671Z" fill="#FFB636"/>
<path d="M10.8444 11.0558V12.9468L6.25195 15.7383V13.8473L10.8444 11.0558Z" fill="#CB8C18"/>
<path d="M10.8444 14.9274V16.8184L6.25195 19.6098V17.7188L10.8444 14.9274Z" fill="#CB8C18"/>
<path fill-rule="evenodd" clip-rule="evenodd" d="M16.8775 12.9117V10.3904H15.0766V14.8027C15.3467 14.6226 15.6169 14.5326 15.887 14.5326C16.6074 14.5326 17.2377 15.1629 17.2377 15.8833C17.2377 16.6037 16.6074 17.234 15.887 17.234C15.1666 17.234 14.5363 16.6037 14.5363 15.8833H12.7354C12.7354 17.5942 14.1761 19.0349 15.887 19.0349C17.5979 19.0349 19.0387 17.5942 19.0387 15.8833C19.0387 14.5326 18.1382 13.3619 16.8775 12.9117Z" fill="#FFB636"/>
<path fill-rule="evenodd" clip-rule="evenodd" d="M20.8305 10.0135C21.0532 10.1405 20.963 10.4806 20.7066 10.4806H3.19079C2.97756 10.4806 2.8622 10.2308 3.00048 10.0685L8.72839 3.34442C8.80629 3.25297 8.93822 3.22986 9.04257 3.28938L20.8305 10.0135Z" fill="#CB8C18"/>
</svg>
