<svg width="24" height="24" viewBox="0 0 24 24" fill="none" xmlns="http://www.w3.org/2000/svg">
<path d="M9.29654 8.93091C9.33743 8.8569 9.35887 8.77372 9.35887 8.68916V4.491H8.28225C8.00611 4.491 7.78225 4.26714 7.78225 3.991V3.26477C7.78225 2.98863 8.00611 2.76477 8.28225 2.76477H15.8213C16.0975 2.76477 16.3213 2.98863 16.3213 3.26477V3.991C16.3213 4.26714 16.0975 4.491 15.8213 4.491H14.7792V8.69144C14.7792 8.77455 14.7999 8.85635 14.8395 8.92944L21.1006 20.4974C21.2809 20.8305 21.0397 21.2354 20.6608 21.2354H3.34739C2.96669 21.2354 2.72565 20.8269 2.90972 20.4936L9.29654 8.93091Z" fill="#FFB732"/>
<path d="M10.6214 10.671C10.5307 10.671 10.447 10.7202 10.4029 10.7995L5.65185 19.345C5.5592 19.5116 5.67969 19.7164 5.87035 19.7164H18.1051C18.2957 19.7164 18.4162 19.5116 18.3236 19.345L13.5725 10.7995C13.5284 10.7202 13.4448 10.671 13.354 10.671H10.6214Z" fill="#CB8C18"/>
</svg>
