<svg width="24" height="24" viewBox="0 0 24 24" fill="none" xmlns="http://www.w3.org/2000/svg">
<path d="M20.2 5.91539V11.0954C20.2152 11.3985 20.2152 11.7022 20.2 12.0054H12V2.00539C12.0658 1.99039 12.1342 1.99039 12.2 2.00539L19.9 5.38539C20.0025 5.42693 20.0879 5.5019 20.1423 5.59812C20.1968 5.69435 20.2171 5.80616 20.2 5.91539Z" fill="#CB8C18"/>
<path d="M12.0008 12.0054V22.0054H11.8808C9.685 21.3436 7.7396 20.0355 6.29828 18.2517C4.85696 16.4679 3.98663 14.2912 3.80078 12.0054H12.0008Z" fill="#CB8C18"/>
<path d="M12.0004 2.00537V12.0054H3.80044C3.78527 11.7022 3.78527 11.3985 3.80044 11.0954V5.91537C3.80135 5.81807 3.83008 5.72305 3.88324 5.64154C3.9364 5.56003 4.01176 5.49544 4.10044 5.45537L11.8004 2.07537C11.8611 2.03743 11.9294 2.01351 12.0004 2.00537Z" fill="#FFB732"/>
<path d="M20.16 12.0054C19.77 16.6154 16.47 20.8754 12.16 22.0054H12V12.0054H20.16Z" fill="#FFB732"/>
</svg>
