<svg width="24" height="24" viewBox="0 0 24 24" fill="none" xmlns="http://www.w3.org/2000/svg">
<path d="M19.1726 15.6749C18.3008 16.5467 17.2352 17.128 15.9759 17.5154H15.879C15.6853 15.7718 15.104 14.0281 14.1353 12.575C13.9416 12.1875 13.651 11.8 13.3604 11.4126L14.2322 10.5407L19.1726 15.6749Z" fill="#CB8C18"/>
<path d="M21.5947 9.95894C21.5947 11.7026 21.0134 13.2526 20.1416 14.5119L15.2012 9.57146L16.3636 8.40901C17.0417 8.89336 17.9136 9.18398 18.8823 9.18398C19.851 9.18398 20.7228 8.89336 21.4978 8.31213C21.4978 8.89336 21.5947 9.47459 21.5947 9.95894Z" fill="#CB8C18"/>
<path d="M20.9153 6.85899C20.5278 7.34335 19.9466 7.63396 19.2685 7.73084C18.5904 7.82771 17.9123 7.73084 17.3311 7.34335L19.7528 4.92157C20.2372 5.5028 20.6247 6.1809 20.9153 6.85899Z" fill="#CB8C18"/>
<path d="M18.7846 3.95317L16.3628 6.37495C15.9754 5.79372 15.8785 5.11562 15.9754 4.43752C16.0722 3.85629 16.3628 3.27507 16.8472 2.79071C17.5253 3.08132 18.2034 3.46881 18.7846 3.95317Z" fill="#CB8C18"/>
<path d="M14.5225 4.82488C14.5225 5.7936 14.8131 6.66544 15.2974 7.34353L14.135 8.50599L9.09766 3.56556C10.357 2.59684 12.0038 2.11249 13.6506 2.11249C14.2318 2.11249 14.7162 2.20936 15.2974 2.30623C14.8131 2.98433 14.5225 3.95304 14.5225 4.82488Z" fill="#CB8C18"/>
<path d="M13.0695 9.57155L12.1976 10.4434C11.8101 10.1528 11.4226 9.86216 11.0352 9.66842C9.58209 8.6997 7.83841 8.02161 6.09473 7.82786V7.73099C6.48221 6.47167 7.06344 5.40608 7.93528 4.53424L13.0695 9.57155Z" fill="#CB8C18"/>
<path d="M13.3597 11.3156L13.2629 11.4125C12.9722 11.025 12.5848 10.7344 12.1973 10.3469L12.2941 10.2501C12.4879 10.4438 12.6816 10.5407 12.8754 10.7344C13.0691 11.025 13.2628 11.1219 13.3597 11.3156Z" fill="#FFB732"/>
<path d="M15.6837 21.0994C15.6837 21.0994 9.96826 22.94 5.41531 18.387C0.862366 13.8341 3.18728 8.0218 3.18728 8.0218C3.18728 8.0218 4.44661 7.63431 6.19029 7.73118C7.93397 7.82806 10.162 8.40928 12.39 10.3467C12.5838 10.5405 12.7775 10.6373 12.9713 10.8311C13.165 11.0248 13.2619 11.2185 13.4556 11.3154C15.2962 13.3497 15.8774 15.6746 16.0712 17.5152C16.0712 19.5495 15.6837 21.0994 15.6837 21.0994Z" fill="#FFB732"/>
<path d="M7.64413 12.9624C7.741 12.8655 7.83787 12.8655 7.83787 12.7686C7.93474 12.7686 8.03162 12.6718 8.12849 12.6718C8.22536 12.6718 8.32223 12.6718 8.41911 12.7686C8.51598 12.7686 8.61284 12.8655 8.61284 12.9624L10.8409 15.1904C10.9378 15.2873 10.9378 15.3841 11.0346 15.3841C11.0346 15.481 11.1315 15.5779 11.1315 15.6748C11.1315 15.7716 11.1315 15.8685 11.0346 15.9654C11.0346 16.0622 10.9378 16.1591 10.8409 16.1591C10.744 16.256 10.6471 16.256 10.6471 16.3529C10.5503 16.3529 10.4534 16.4497 10.3565 16.4497C10.2597 16.4497 10.1628 16.4497 10.0659 16.3529C9.96904 16.3529 9.87217 16.256 9.87217 16.1591L7.64413 13.9311C7.54726 13.8342 7.54726 13.7373 7.45039 13.7373C7.45039 13.6405 7.35352 13.5436 7.35352 13.4467C7.35352 13.3499 7.35352 13.253 7.45039 13.1561C7.54726 13.0592 7.64413 13.0592 7.64413 12.9624Z" fill="#CB8C18"/>
</svg>
