<svg width="24" height="24" viewBox="0 0 24 24" fill="none" xmlns="http://www.w3.org/2000/svg">
<path d="M5.36328 3C5.08714 3 4.86328 3.22386 4.86328 3.5V20.1439C4.86328 20.5266 5.27563 20.7674 5.60894 20.5794L8.16307 19.1386C8.31555 19.0526 8.50191 19.0526 8.65439 19.1386L11.7116 20.8632C11.8624 20.9482 12.0465 20.9492 12.1982 20.8658L15.3465 19.1342C15.4982 19.0508 15.6823 19.0518 15.8331 19.1368L18.3903 20.5794C18.7237 20.7674 19.136 20.5266 19.136 20.1439V3.5C19.136 3.22386 18.9121 3 18.636 3H5.36328Z" fill="#FFB732"/>
<path d="M10.3053 8.58214C10.306 8.63771 10.295 8.6928 10.2731 8.74387C10.2512 8.79495 10.2189 8.84087 10.1782 8.8787C10.1402 8.91923 10.0942 8.95153 10.0432 8.97361C9.99222 8.99569 9.93723 9.00709 9.88165 9.00709C9.82607 9.00709 9.77108 8.99569 9.72007 8.97361C9.66907 8.95153 9.62313 8.91923 9.58509 8.8787C9.54439 8.84087 9.51205 8.79495 9.49016 8.74387C9.46827 8.6928 9.45732 8.63771 9.45799 8.58214C9.45607 8.52591 9.46559 8.46988 9.48598 8.41745C9.50637 8.36501 9.53721 8.31727 9.57662 8.27711C9.65682 8.20144 9.76291 8.15929 9.87318 8.15929C9.98344 8.15929 10.0895 8.20144 10.1697 8.27711C10.2122 8.31581 10.2462 8.3629 10.2695 8.4154C10.2929 8.46791 10.305 8.52469 10.3053 8.58214Z" fill="#CB8C18"/>
<path fill-rule="evenodd" clip-rule="evenodd" d="M9.95782 8.77632C9.97785 8.76715 9.99643 8.75471 10.0127 8.73933L9.72524 8.43463C9.72227 8.43818 9.71941 8.44181 9.71665 8.44552C9.70563 8.46036 9.69635 8.47647 9.68903 8.49354C9.68868 8.49436 9.68834 8.49518 9.68799 8.49601C9.67757 8.52111 9.67155 8.54779 9.67016 8.57487C9.66999 8.57815 9.66989 8.58144 9.66986 8.58473C9.66986 8.58483 9.66986 8.58463 9.66986 8.58473C9.66986 8.58552 9.66985 8.58661 9.66985 8.5874C9.66986 8.58823 9.66988 8.58906 9.6699 8.58989C9.67055 8.61419 9.67521 8.63819 9.68369 8.66093C9.68526 8.66517 9.68697 8.66936 9.68881 8.6735C9.6978 8.69371 9.70975 8.7124 9.72424 8.72899C9.72729 8.73248 9.73046 8.73589 9.73374 8.73919C9.73374 8.73919 9.73374 8.73919 9.73374 8.73919C9.73501 8.74047 9.73629 8.74173 9.73759 8.74297C9.73901 8.74424 9.74045 8.7455 9.7419 8.74672C9.76013 8.76213 9.7808 8.77411 9.80292 8.78225C9.82522 8.79046 9.84898 8.79477 9.87318 8.79477C9.87601 8.79477 9.87883 8.79471 9.88165 8.7946C9.90816 8.79349 9.93402 8.78722 9.95782 8.77632ZM9.73077 8.42841L10.0302 8.72224C10.0306 8.72178 10.0311 8.72132 10.0315 8.72086C10.0491 8.70262 10.0634 8.6815 10.0738 8.65843C10.0754 8.65493 10.0769 8.65137 10.0783 8.64777C10.0855 8.62915 10.0902 8.60967 10.0921 8.58987C10.0923 8.58816 10.0925 8.58645 10.0926 8.58474C10.0926 8.58419 10.0927 8.58365 10.0927 8.58311C10.0929 8.58031 10.093 8.57751 10.0931 8.57471C10.0929 8.56993 10.0925 8.56517 10.092 8.56042C10.0897 8.54005 10.0847 8.52002 10.0773 8.50086C10.0763 8.4984 10.0753 8.49597 10.0743 8.49354C10.0669 8.47647 10.0577 8.46036 10.0466 8.44552C10.0424 8.43979 10.0379 8.43426 10.0331 8.42893C10.0328 8.42865 10.0325 8.42838 10.0322 8.4281C10.0313 8.42732 10.0304 8.42654 10.0295 8.42577C10.0251 8.42206 10.0206 8.41852 10.0159 8.41515C10.0024 8.40538 9.9879 8.39708 9.97254 8.39043C9.94385 8.37801 9.91291 8.3716 9.88165 8.3716C9.87882 8.3716 9.876 8.37165 9.87318 8.37176C9.84481 8.37281 9.81686 8.37913 9.79076 8.39043C9.7754 8.39708 9.76086 8.40538 9.74738 8.41515C9.74165 8.4193 9.7361 8.42373 9.73077 8.42841ZM9.1405 7.8149C9.33864 7.62794 9.60076 7.5238 9.87318 7.5238C10.1438 7.5238 10.4042 7.62654 10.6018 7.81112C10.7074 7.90832 10.7919 8.02614 10.8502 8.15731C10.909 8.28943 10.9398 8.43225 10.9408 8.57682C10.9422 8.72022 10.9137 8.86237 10.8572 8.9942C10.8033 9.1201 10.7249 9.23396 10.6266 9.32921C10.5322 9.42576 10.4198 9.50308 10.2957 9.5568C10.165 9.61338 10.0241 9.64257 9.88165 9.64257C9.73922 9.64257 9.59831 9.61338 9.46761 9.5568C9.34352 9.50308 9.23114 9.42576 9.13668 9.3292C9.03843 9.23396 8.96002 9.12011 8.90606 8.9942C8.85119 8.86617 8.82278 8.72843 8.82248 8.58925C8.81969 8.45188 8.84387 8.31526 8.89371 8.18712C8.94531 8.05442 9.02335 7.9336 9.12307 7.83198L9.13162 7.82327L9.1405 7.8149ZM10.9408 8.57682C10.9408 8.57763 10.9408 8.57845 10.9408 8.57926L10.3053 8.58214L10.9407 8.5744C10.9408 8.5752 10.9408 8.57601 10.9408 8.57682Z" fill="#CB8C18"/>
<path d="M14.5419 12.8187C14.5425 12.8743 14.5316 12.9294 14.5097 12.9804C14.4878 13.0315 14.4555 13.0774 14.4148 13.1153C14.3767 13.1558 14.3308 13.1881 14.2798 13.2102C14.2288 13.2323 14.1738 13.2436 14.1182 13.2436C14.0626 13.2436 14.0076 13.2323 13.9566 13.2102C13.9056 13.1881 13.8597 13.1558 13.8217 13.1153C13.781 13.0774 13.7486 13.0315 13.7267 12.9804C13.7048 12.9294 13.6939 12.8743 13.6946 12.8187C13.6937 12.7619 13.7046 12.7055 13.7264 12.653C13.7483 12.6005 13.7807 12.5531 13.8217 12.5137C13.9019 12.438 14.0079 12.3959 14.1182 12.3959C14.2285 12.3959 14.3346 12.438 14.4148 12.5137C14.4557 12.5531 14.4881 12.6005 14.51 12.653C14.5318 12.7055 14.5427 12.7619 14.5419 12.8187Z" fill="#CB8C18"/>
<path fill-rule="evenodd" clip-rule="evenodd" d="M14.1957 13.016C14.2185 13.0066 14.2395 12.9931 14.2578 12.9759L14.1182 12.828L13.9787 12.9759C13.9969 12.9931 14.0179 13.0066 14.0407 13.016C14.0651 13.026 14.0914 13.0313 14.1182 13.0313C14.145 13.0313 14.1714 13.026 14.1957 13.016ZM14.1151 12.8247L13.9739 12.9713C13.9706 12.9682 13.9675 12.965 13.9644 12.9616C13.9471 12.9428 13.9332 12.9211 13.9234 12.8974C13.9232 12.8971 13.9231 12.8967 13.9229 12.8963C13.9138 12.874 13.9084 12.8504 13.9069 12.8264C13.9068 12.8247 13.9067 12.823 13.9066 12.8213C13.9065 12.8201 13.9065 12.8189 13.9065 12.8177C13.9065 12.817 13.9065 12.8163 13.9065 12.8156C13.9066 12.8136 13.9067 12.8115 13.9068 12.8095C13.9083 12.784 13.914 12.7589 13.9235 12.7351C13.9242 12.7334 13.9249 12.7318 13.9256 12.7301C13.9329 12.713 13.9422 12.6969 13.9532 12.6821C13.9572 12.6767 13.9614 12.6715 13.9658 12.6665L14.1151 12.8247ZM13.9674 12.6649C13.9727 12.6603 13.9782 12.6559 13.9839 12.6517C13.9974 12.6419 14.012 12.6336 14.0273 12.627C14.056 12.6146 14.0869 12.6082 14.1182 12.6082C14.1495 12.6082 14.1804 12.6146 14.2091 12.627C14.2245 12.6336 14.239 12.6419 14.2525 12.6517C14.2582 12.6559 14.2637 12.6603 14.2691 12.6649L14.1182 12.8215L13.9674 12.6649ZM14.1213 12.8247L14.2706 12.6665C14.275 12.6715 14.2792 12.6767 14.2832 12.6821C14.2942 12.6969 14.3035 12.713 14.3108 12.7301C14.3115 12.7318 14.3122 12.7334 14.3129 12.7351C14.3225 12.7589 14.3281 12.784 14.3296 12.8095C14.3297 12.8115 14.3298 12.8136 14.3299 12.8156C14.3299 12.8163 14.3299 12.817 14.3299 12.8177C14.3299 12.8189 14.3299 12.8201 14.3298 12.8213C14.3298 12.823 14.3297 12.8247 14.3296 12.8264C14.3281 12.8504 14.3226 12.8741 14.3135 12.8963C14.3133 12.8967 14.3132 12.8971 14.3131 12.8974C14.3032 12.9211 14.2893 12.9428 14.272 12.9616C14.2689 12.965 14.2658 12.9682 14.2625 12.9713L14.1213 12.8247ZM13.3855 12.0515C13.5837 11.8645 13.8458 11.7604 14.1182 11.7604C14.3906 11.7604 14.6527 11.8645 14.8509 12.0515L14.8557 12.056C14.9593 12.1558 15.0413 12.2758 15.0966 12.4086C15.1508 12.5388 15.1783 12.6785 15.1774 12.8195C15.1779 12.9608 15.1495 13.1008 15.0938 13.2308C15.0398 13.3567 14.9614 13.4705 14.8632 13.5658C14.7687 13.6623 14.6563 13.7396 14.5323 13.7934C14.4016 13.8499 14.2606 13.8791 14.1182 13.8791C13.9758 13.8791 13.8349 13.8499 13.7042 13.7934C13.5801 13.7396 13.4677 13.6623 13.3732 13.5658C13.275 13.4705 13.1966 13.3567 13.1426 13.2308C13.0869 13.1008 13.0585 12.9608 13.059 12.8195C13.0581 12.6785 13.0856 12.5388 13.1398 12.4086C13.1952 12.2758 13.2772 12.1558 13.3808 12.056L13.3855 12.0515Z" fill="#CB8C18"/>
<path fill-rule="evenodd" clip-rule="evenodd" d="M14.9912 8.60784L9.90735 13.6917L9.00864 12.793L14.0925 7.70913L14.9912 8.60784Z" fill="#CB8C18"/>
</svg>
