<svg width="24" height="24" viewBox="0 0 24 24" fill="none" xmlns="http://www.w3.org/2000/svg">
<path d="M21.8689 7.03252C21.9279 7.08493 21.9697 7.1541 21.9885 7.23081C22.0073 7.30753 22.0023 7.38815 21.9742 7.46196L20.5886 11.4161C19.2517 15.2001 15.3461 17.8983 11.4892 17.5499C11.4235 17.5406 11.3602 17.5186 11.3028 17.4851C9.7136 16.3127 8.54152 14.6623 7.95828 12.7755C7.37504 10.8887 7.4113 8.86478 8.06174 7.00011L9.43921 3.04596C9.46687 2.97198 9.51515 2.90747 9.57834 2.86008C9.64152 2.81269 9.71696 2.7844 9.79573 2.77856L15.6054 5.83331C15.6618 5.8297 15.7183 5.83792 15.7714 5.85746C15.8244 5.877 15.8727 5.90741 15.9133 5.94675L21.8689 7.03252Z" fill="#CB8C18"/>
<path fill-rule="evenodd" clip-rule="evenodd" d="M12.0733 8.25618C11.9447 8.20854 11.8048 8.20085 11.6717 8.2341C11.5387 8.26736 11.4189 8.34001 11.3278 8.44254C11.224 8.56798 11.0762 8.64912 10.9146 8.66942C10.8348 8.67786 10.7542 8.67001 10.6776 8.64633C10.601 8.62265 10.53 8.58364 10.4689 8.53167C10.344 8.43084 10.2627 8.28574 10.2421 8.12653C10.2341 7.96639 10.2828 7.80857 10.3798 7.68088C10.6285 7.38906 10.9588 7.17835 11.3282 7.07586C11.6976 6.97338 12.0893 6.98382 12.4527 7.10584C12.8162 7.22786 13.1348 7.45588 13.3675 7.76053C13.6003 8.06518 13.7365 8.43253 13.7587 8.81527C13.7656 8.89577 13.7516 8.97671 13.7181 9.05025C13.6938 9.12622 13.6522 9.19554 13.5966 9.25282C13.5438 9.31011 13.4805 9.35686 13.4102 9.39056C13.3381 9.42929 13.2572 9.44882 13.1753 9.44728C13.0954 9.44544 13.0162 9.43179 12.9403 9.40677C12.8671 9.36649 12.7991 9.31751 12.7377 9.26092C12.6827 9.20006 12.6363 9.13189 12.6 9.05835C12.573 8.99423 12.5592 8.92534 12.5595 8.85578C12.5476 8.71871 12.4949 8.58834 12.4083 8.48147C12.3216 8.3746 12.2049 8.29613 12.0733 8.25618Z" fill="white"/>
<path fill-rule="evenodd" clip-rule="evenodd" d="M15.2897 13.8956C15.3504 14.0436 15.3504 14.2095 15.2897 14.3575C15.2191 14.5012 15.0979 14.6138 14.9493 14.6735C14.7985 14.7339 14.6302 14.7339 14.4794 14.6735C14.3383 14.6059 14.2282 14.4871 14.1715 14.3413C14.1103 14.2125 14.0281 14.0947 13.9284 13.9928C13.6196 13.6481 13.2214 13.3957 12.7778 13.2636C12.3429 13.1024 11.8721 13.0632 11.4165 13.1502C11.2795 13.1774 11.1462 13.2209 11.0195 13.2798C10.9544 13.3257 10.8803 13.3573 10.8021 13.3727C10.7239 13.3881 10.6434 13.3868 10.5657 13.3689C10.4765 13.3508 10.3917 13.3149 10.3166 13.2634C10.2414 13.2119 10.1773 13.1458 10.1282 13.0691C10.0478 12.9324 10.0218 12.7704 10.0553 12.6154C10.0722 12.5373 10.1046 12.4634 10.1505 12.398C10.1964 12.3326 10.255 12.277 10.3227 12.2345H10.3713L10.5414 12.1535C10.7264 12.0722 10.9192 12.0097 11.1167 11.9671C11.7838 11.845 12.4714 11.9009 13.11 12.1292C13.7578 12.3318 14.3397 12.7039 14.7954 13.2069C14.9297 13.358 15.0466 13.5238 15.1438 13.7011L15.2491 13.9199L15.2897 13.8956Z" fill="#CB8C18"/>
<path fill-rule="evenodd" clip-rule="evenodd" d="M18.0208 10.9542C17.9457 10.9848 17.8665 11.0039 17.7858 11.0109C17.7032 11.0099 17.6212 10.9962 17.5427 10.9704C17.4731 10.9349 17.4079 10.8913 17.3483 10.8408C17.2878 10.7857 17.2383 10.7197 17.2024 10.6463C17.1739 10.5713 17.1602 10.4915 17.1619 10.4113C17.1484 10.2738 17.0953 10.1432 17.009 10.0353C16.9227 9.92741 16.8069 9.84692 16.6757 9.80362C16.5476 9.75758 16.4085 9.75152 16.2768 9.78624C16.1452 9.82097 16.0271 9.89484 15.9384 9.99809C15.8337 10.1212 15.6858 10.1994 15.5251 10.2169C15.3643 10.2205 15.207 10.1691 15.0795 10.071C14.954 9.96714 14.8729 9.81936 14.8526 9.65777C14.8505 9.51337 14.8993 9.37283 14.9903 9.26073C15.239 8.96609 15.5709 8.7535 15.9425 8.65083C16.3141 8.54817 16.7081 8.56023 17.0728 8.68544C17.2338 8.73964 17.3865 8.816 17.5265 8.91231C17.7774 9.07444 17.9857 9.29451 18.1338 9.55398C18.2819 9.81345 18.3654 10.1047 18.3773 10.4032C18.3887 10.4811 18.3887 10.5603 18.3773 10.6382C18.3418 10.7104 18.2984 10.7783 18.2477 10.8408C18.1779 10.8894 18.1015 10.9276 18.0208 10.9542Z" fill="white"/>
<path d="M14.2364 6.44104C14.3143 6.44639 14.3889 6.47461 14.4509 6.52217C14.5129 6.56974 14.5595 6.63453 14.5848 6.70843L15.9785 10.6626C17.3073 14.4547 15.9785 19.0165 12.7374 21.1476C12.6835 21.1822 12.6226 21.2043 12.5591 21.2124C10.5814 21.2992 8.62791 20.7495 6.98571 19.644C5.34351 18.5385 4.09913 16.9355 3.43538 15.0705L2.02549 11.1163C1.99737 11.0425 1.99238 10.9619 2.0112 10.8852C2.03001 10.8085 2.07174 10.7393 2.13083 10.6869L8.61304 9.43096C8.65482 9.39387 8.70356 9.36545 8.75642 9.34737C8.80928 9.32928 8.86521 9.32189 8.92095 9.32562L14.2364 6.44104Z" fill="#FFB732"/>
<path fill-rule="evenodd" clip-rule="evenodd" d="M7.357 13.531C7.22955 13.5731 7.11717 13.6515 7.03368 13.7566C6.95019 13.8616 6.89922 13.9888 6.88704 14.1225C6.88058 14.2839 6.81412 14.437 6.70067 14.5519C6.64485 14.6091 6.57801 14.6544 6.5042 14.685C6.43039 14.7157 6.35114 14.731 6.27123 14.7302C6.11079 14.7267 5.95752 14.6631 5.84178 14.5519C5.73585 14.4342 5.67802 14.2809 5.67972 14.1225C5.68788 13.7381 5.81222 13.3651 6.0364 13.0527C6.26057 12.7403 6.57408 12.5031 6.93565 12.3723C7.29616 12.241 7.68765 12.2201 8.06005 12.3125C8.43245 12.4049 8.76883 12.6063 9.02617 12.8909C9.07941 12.9516 9.11819 13.0236 9.13961 13.1015C9.15601 13.179 9.15601 13.2591 9.13961 13.3365C9.12394 13.4982 9.04888 13.6483 8.92893 13.7579C8.86524 13.8021 8.7974 13.8401 8.72636 13.8713C8.64845 13.8827 8.56929 13.8827 8.49138 13.8713C8.41065 13.8556 8.33186 13.8311 8.2564 13.7984C8.18544 13.7623 8.12215 13.7127 8.07004 13.6525C7.97415 13.5681 7.85668 13.5121 7.73076 13.4906C7.60484 13.4692 7.47543 13.4831 7.357 13.531Z" fill="#CB8C18"/>
<path fill-rule="evenodd" clip-rule="evenodd" d="M13.3696 15.9133C13.5032 16.0004 13.601 16.1327 13.6451 16.286C13.6791 16.4437 13.6531 16.6083 13.5722 16.7478C13.4873 16.8836 13.3541 16.982 13.1994 17.0233C13.1233 17.0433 13.044 17.0478 12.966 17.0367C12.8881 17.0255 12.8132 16.999 12.7457 16.9585C12.6153 16.8948 12.4759 16.851 12.3325 16.8289C11.8757 16.7599 11.4089 16.813 10.9793 16.9828C10.5393 17.1296 10.1473 17.3928 9.8449 17.7445C9.75264 17.8519 9.67624 17.9719 9.61802 18.101C9.5956 18.177 9.55727 18.2474 9.50559 18.3075C9.4539 18.3675 9.39003 18.4159 9.31822 18.4494C9.16739 18.5098 8.99909 18.5098 8.84826 18.4494C8.70453 18.4031 8.58321 18.3049 8.50795 18.1739C8.45178 18.0279 8.45178 17.8662 8.50795 17.7202V17.6716C8.50795 17.6148 8.56467 17.55 8.58897 17.5014C8.68416 17.3242 8.79536 17.156 8.92119 16.999C9.35405 16.4889 9.91268 16.1006 10.5417 15.8728C11.1818 15.6181 11.8771 15.5343 12.5593 15.6297C12.7579 15.6603 12.9514 15.7175 13.1346 15.7998L13.3534 15.8971L13.3696 15.9133Z" fill="#CB8C18"/>
<path fill-rule="evenodd" clip-rule="evenodd" d="M13.6851 11.9102C13.6487 11.9838 13.5975 12.0491 13.5348 12.102C13.472 12.155 13.3991 12.1945 13.3205 12.2181C13.2458 12.2346 13.1683 12.2346 13.0936 12.2181C13.0121 12.2166 12.9319 12.1972 12.8586 12.1614C12.7899 12.1187 12.7272 12.0669 12.6723 12.0075C12.5766 11.9114 12.4556 11.8445 12.3233 11.8148C12.191 11.7851 12.0529 11.7937 11.9254 11.8396C11.7978 11.8855 11.686 11.9669 11.603 12.0741C11.52 12.1813 11.4693 12.31 11.4569 12.445C11.4567 12.6061 11.3926 12.7606 11.2786 12.8745C11.1629 12.9856 11.0096 13.0492 10.8492 13.0527C10.688 13.0526 10.5336 12.9885 10.4197 12.8745C10.3613 12.8195 10.3153 12.7529 10.2845 12.6789C10.2538 12.6048 10.2391 12.5251 10.2414 12.445C10.2528 12.0632 10.3797 11.6939 10.6054 11.3858C10.8311 11.0776 11.1449 10.8452 11.5055 10.7191C11.6641 10.6584 11.8305 10.6202 11.9997 10.6057C12.3006 10.5747 12.6046 10.6159 12.8864 10.7258C13.1682 10.8358 13.4198 11.0112 13.6203 11.2377C13.6705 11.2989 13.7114 11.3672 13.7418 11.4403C13.7543 11.5181 13.7543 11.5974 13.7418 11.6753C13.7363 11.7562 13.7171 11.8357 13.6851 11.9102Z" fill="#CB8C18"/>
</svg>
