<svg width="24" height="24" viewBox="0 0 24 24" fill="none" xmlns="http://www.w3.org/2000/svg">
<path d="M21.1504 4.31146C21.4265 4.31146 21.6504 4.53532 21.6504 4.81146V19.1882C21.6504 19.4643 21.4265 19.6882 21.1504 19.6882H14.1205C13.876 19.6882 13.6717 19.5098 13.5991 19.2764C13.3266 18.3998 12.6727 17.6738 11.7527 17.2138C10.9574 16.7719 10.0736 16.5068 9.01318 16.5068C7.95272 16.5068 7.06899 16.7719 6.27365 17.2138C5.36194 17.7456 4.71151 18.4734 4.43466 19.2848C4.35662 19.5135 4.15382 19.6882 3.91217 19.6882H3.15039C2.87425 19.6882 2.65039 19.4644 2.65039 19.1882V4.81146C2.65039 4.53532 2.87425 4.31146 3.15039 4.31146H21.1504Z" fill="#FFB732"/>
<path d="M19.0296 6.87451C19.3058 6.87451 19.5296 7.09837 19.5296 7.37451V16.714C19.5296 16.9902 19.3058 17.214 19.0296 17.214H11.9708C11.8858 17.214 11.8025 17.192 11.7273 17.1523C10.9616 16.7476 10.1118 16.5071 9.10172 16.5071C8.09161 16.5071 7.24186 16.7476 6.47609 17.1523C6.40096 17.192 6.31759 17.214 6.23262 17.214H5.27148C4.99534 17.214 4.77148 16.9902 4.77148 16.714V7.37451C4.77148 7.09837 4.99534 6.87451 5.27148 6.87451H19.0296Z" fill="#CB8C18"/>
<path d="M9.10134 15.8883C10.6632 15.8883 11.9293 14.6222 11.9293 13.0604C11.9293 11.4986 10.6632 10.2325 9.10134 10.2325C7.53953 10.2325 6.27344 11.4986 6.27344 13.0604C6.27344 14.6222 7.53953 15.8883 9.10134 15.8883Z" fill="white"/>
</svg>
