<svg width="24" height="24" viewBox="0 0 24 24" fill="none" xmlns="http://www.w3.org/2000/svg">
<path d="M20.0502 2.97479C20.3263 2.97479 20.5502 3.19865 20.5502 3.47479V20.5248C20.5502 20.8009 20.3263 21.0248 20.0502 21.0248H17.2502C16.9741 21.0248 16.7502 20.8009 16.7502 20.5248V19.1248H7.2502V20.5248C7.2502 20.8009 7.02634 21.0248 6.7502 21.0248H3.9502C3.67405 21.0248 3.4502 20.8009 3.4502 20.5248V3.47479C3.4502 3.19865 3.67405 2.97479 3.9502 2.97479H20.0502Z" fill="#FFB732"/>
<path d="M18.6496 4.87482H5.34961V11.5248H18.6496V4.87482Z" fill="#CB8C18"/>
<path d="M3.45 7.72479H2.5V11.5248H3.45V7.72479Z" fill="#CB8C18"/>
<path d="M21.4998 7.72479H20.5498V11.5248H21.4998V7.72479Z" fill="#CB8C18"/>
<path d="M16.2746 17.2248C17.0616 17.2248 17.6996 16.5868 17.6996 15.7998C17.6996 15.0128 17.0616 14.3748 16.2746 14.3748C15.4876 14.3748 14.8496 15.0128 14.8496 15.7998C14.8496 16.5868 15.4876 17.2248 16.2746 17.2248Z" fill="#CB8C18"/>
<path d="M7.7248 17.2248C8.51181 17.2248 9.1498 16.5868 9.1498 15.7998C9.1498 15.0128 8.51181 14.3748 7.7248 14.3748C6.9378 14.3748 6.2998 15.0128 6.2998 15.7998C6.2998 16.5868 6.9378 17.2248 7.7248 17.2248Z" fill="#CB8C18"/>
</svg>
