<svg width="24" height="24" viewBox="0 0 24 24" fill="none" xmlns="http://www.w3.org/2000/svg">
<path d="M7.65532 22.8943C6.9428 22.8943 6.25946 22.6112 5.75563 22.1074C5.2518 21.6036 4.96875 20.9202 4.96875 20.2077C4.96875 18.4167 7.65532 15.3943 7.65532 15.3943C7.65532 15.3943 10.3419 18.4167 10.3419 20.2077C10.3419 20.9202 10.0588 21.6036 9.55501 22.1074C9.05118 22.6112 8.36784 22.8943 7.65532 22.8943Z" fill="#CB8C18"/>
<path d="M14.7883 1.18237C14.9264 1.18237 15.0383 1.2943 15.0383 1.43237V2.73418C15.0383 2.87225 14.9264 2.98417 14.7883 2.98417H13.5225C13.3845 2.98417 13.2725 3.0961 13.2725 3.23417V7.21466C13.2725 7.35273 13.1606 7.46466 13.0225 7.46466H11.7207C11.5827 7.46466 11.4707 7.35273 11.4707 7.21466V3.23417C11.4707 3.0961 11.3588 2.98417 11.2207 2.98417H9.91895C9.78087 2.98417 9.66895 2.87225 9.66895 2.73417V1.43237C9.66895 1.2943 9.78087 1.18237 9.91895 1.18237H14.7883Z" fill="#CB8C18"/>
<path d="M19.8594 4.90631C20.1355 4.90631 20.3594 5.13017 20.3594 5.40631V10.4123C20.3594 10.6885 20.1355 10.9123 19.8594 10.9123H10.3654V13.9318C10.3654 14.208 10.1415 14.4318 9.86538 14.4318H4.85937C4.58323 14.4318 4.35938 14.208 4.35938 13.9318V5.40631C4.35938 5.13017 4.58323 4.90631 4.85938 4.90631H19.8594Z" fill="#FFB732"/>
</svg>
